<svg width="768" height="402" viewBox="0 0 768 402" xmlns="http://www.w3.org/2000/svg">
<path fill-rule="evenodd" clip-rule="evenodd" d="M242.239 61.7702C252.179 65.1264 259.749 70.2144 269.841 80.3213C279.711 90.2054 279.727 89.4758 269.422 99.7805C242.594 126.609 215.593 126.323 188.769 98.9242C179.27 89.2224 179.23 90.0672 189.704 79.6704C207.439 62.0621 225.195 56.0122 242.239 61.7702ZM222.889 111.79C202.015 105.588 201.093 76.0416 221.537 68.4346C229.601 65.4355 240.67 68.1638 246.209 74.5152C261.306 91.8317 244.756 118.285 222.889 111.79ZM188.16 89.6966C188.16 88.4122 197.222 79.3325 202.239 75.5904C206.836 72.1632 206.955 72.2381 204.457 76.9594C199.972 85.44 200.26 97.1309 205.137 104.577C205.738 105.491 205.978 106.237 205.674 106.234C203.835 106.212 188.16 91.4131 188.16 89.6966ZM254.022 103.463C258.837 95.0458 258.682 84.4435 253.611 75.6806C251.637 72.2669 252.403 72.2477 256.742 75.6038C260.475 78.4896 271.359 88.9843 271.359 89.6947C271.359 91.2518 257.414 104.158 253.513 106.214C252.038 106.99 252.056 106.898 254.022 103.463Z"/>
<path d="M233.81 79.5936C238.053 81.3658 241.144 86.9568 240.34 91.4016C238.013 104.275 219.452 103.574 218.375 90.5741C217.688 82.2912 226.042 76.3469 233.81 79.5936Z"/>
<path fill-rule="evenodd" clip-rule="evenodd" d="M565.14 58.5715C569.009 60.5722 569.019 60.6394 568.819 90.6202L568.641 117.867L566.55 119.733L564.459 121.599H520.287C471.665 121.599 474.086 121.795 471.967 117.696C470.559 114.975 470.596 64.153 472.009 61.4246C474.027 57.5213 472.355 57.6538 519.873 57.625C557.439 57.6038 563.516 57.7306 565.14 58.5715ZM476.294 68.352C476.467 63.4618 476.582 63.0701 477.953 62.7475C480.119 62.2368 562.802 62.7091 563.316 63.2333C563.558 63.479 563.821 65.8406 563.904 68.4806L564.056 73.2806L520.082 73.4438L476.108 73.609L476.294 68.352ZM476.928 116.352C476.365 115.789 476.16 110.634 476.16 97.1482V78.7104L520.084 78.8755L564.008 79.0406L563.885 97.2614C563.806 108.995 563.52 115.774 563.082 116.302C562.122 117.458 478.084 117.508 476.928 116.352Z"/>
<path fill-rule="evenodd" clip-rule="evenodd" d="M508.161 96.6394V108.801H495.681H483.201V96.6394V84.48H495.681H508.161V96.6394ZM488.001 104.001L487.818 96.8006L487.638 89.6006H495.681H503.722L503.541 96.8006L503.361 104.001H495.681H488.001Z"/>
<path d="M545.572 85.6704C546.595 88.8979 546.296 88.9594 529.532 88.9594H513.921V86.7206V84.48H529.557C544.237 84.48 545.217 84.553 545.572 85.6704Z"/>
<path d="M531.719 96.1594L531.917 98.5594H522.918H513.921V96.3648C513.921 93.6538 514.249 93.5674 524.16 93.6768L531.519 93.7594L531.719 96.1594Z"/>
<path d="M531.719 106.401L531.917 108.801H522.918H513.921V106.668C513.921 103.632 513.94 103.626 523.163 103.822L531.519 104.001L531.719 106.401Z"/>
<path fill-rule="evenodd" clip-rule="evenodd" d="M563.741 210.119C564.131 210.589 564.516 214.287 564.618 218.517L564.801 226.074L572.371 226.157C579.072 226.23 580.047 226.383 580.852 227.482C581.988 229.039 582.221 289.784 581.098 291.882C580.282 293.405 541.786 293.848 540.288 292.353C539.8 291.865 539.52 289.413 539.52 285.658V279.732L527.04 279.546L514.558 279.36L514.56 283.661V287.96L522.332 288.14C530.728 288.334 532.46 289.058 530.807 291.681C530.16 292.704 528.528 292.8 511.68 292.8C494.832 292.8 493.2 292.704 492.553 291.681C490.931 289.108 492.653 288.346 500.867 288L508.479 287.679L508.671 283.68C508.812 280.735 508.643 279.677 508.03 279.671C507.573 279.665 497.048 279.658 484.641 279.656C461.059 279.652 459.316 279.466 458.623 276.881C458.139 275.076 458.148 213.203 458.634 211.394C458.842 210.622 459.487 209.862 460.067 209.708C463.058 208.913 563.069 209.311 563.741 210.119ZM464.001 262.401V238.719V215.04H511.68H559.359V220.431V225.823L550.347 226.032C549.415 226.053 548.562 226.062 547.782 226.07C544.408 226.104 542.4 226.124 541.209 227.12C539.457 228.586 539.472 232.162 539.508 240.998C539.514 242.385 539.52 243.903 539.52 245.562V262.401H501.759H464.001ZM545.28 288V259.839V231.681H560.64H576V259.839V288H560.64H545.28ZM464.001 273.921V271.041V268.161H501.759H539.52V271.041V273.921H501.759H464.001Z"/>
<path d="M566.258 278.757C569.91 281.315 567.197 283.521 560.402 283.521C553.897 283.521 551.675 281.697 554.605 278.765C556.001 277.371 564.269 277.363 566.258 278.757Z"/>
<path fill-rule="evenodd" clip-rule="evenodd" d="M264.321 206.899C267.796 208.635 268.159 210.655 268.159 228.275C268.161 245.113 267.955 246.399 265.273 246.399C263.727 246.399 263.366 244.954 263.04 237.441L262.719 230.079H224.319H185.919V255.681V281.28L206.17 281.449C227.793 281.629 228.492 281.737 227.53 284.769C226.984 286.487 186.645 287.027 183.527 285.358C180.465 283.718 180.436 283.348 180.624 245.389L180.801 209.814L182.89 207.948L184.98 206.079L223.851 206.089C253.636 206.097 263.094 206.285 264.321 206.899ZM185.601 225.279V218.235V211.19L224.16 211.356L262.719 211.521L262.902 218.4L263.084 225.279H224.342H185.601Z"/>
<path d="M253.119 240.321V242.241L225.921 242.559L198.72 242.88L198.547 255.84L198.374 268.8H210.739C224.605 268.8 226.988 269.56 223.634 272.915C222.424 274.124 197.341 274.426 195.158 273.258C193.897 272.582 193.137 239.716 194.354 238.5C194.592 238.262 207.911 238.141 223.953 238.234L253.119 238.401V240.321Z"/>
<path fill-rule="evenodd" clip-rule="evenodd" d="M261.17 271.705C278.406 278.003 277.761 277.693 277.761 279.598C277.761 281.034 277.167 281.645 274.241 283.223C269.99 285.516 270.013 285.112 273.921 288.96C277.171 292.163 277.732 293.533 276.351 294.912C274.984 296.279 273.704 295.741 270.184 292.32C268.282 290.471 266.611 289.248 266.471 289.599C262.412 299.741 260.262 298.735 254.797 284.147C248.256 266.675 248.12 266.938 261.17 271.705ZM261.014 286.506C260.463 285.525 257.28 276.605 257.28 276.048C257.28 275.589 258.484 275.942 263.964 278.008L269.689 280.166L267.084 281.497C265.58 282.263 263.879 283.841 263.061 285.228C261.817 287.336 261.565 287.493 261.014 286.506Z"/>
<path d="M245.631 285.567C247.279 287.215 242.776 293.76 239.994 293.76C236.767 293.76 236.803 291.222 240.081 287.666C242.769 284.751 244.253 284.189 245.631 285.567Z"/>
<path d="M241.029 274.287C241.636 276.707 240.682 277.204 235.843 276.991C227.937 276.643 228.29 272.64 236.225 272.64C240.407 272.64 240.636 272.719 241.029 274.287Z"/>
<path d="M243.708 258.745C248.999 264.136 245.576 267.558 240.184 262.266C237.366 259.5 236.867 258.109 238.209 256.767C239.551 255.425 240.941 255.924 243.708 258.745Z"/>
<path d="M258.561 254.763C258.561 259.511 257.683 260.809 255.433 259.396C253.882 258.42 253.615 250.883 255.095 249.802C257.378 248.131 258.561 249.825 258.561 254.763Z"/>
<path d="M274.431 256.767C276.079 258.415 271.576 264.96 268.794 264.96C265.517 264.96 265.578 262.163 268.932 258.745C271.699 255.924 273.089 255.425 274.431 256.767Z"/>
<path d="M214.508 217.261C215.401 219.222 214.33 220.8 212.104 220.8C210.012 220.8 209.065 218.832 210.307 217.06C211.603 215.207 213.615 215.303 214.508 217.261Z"/>
<path d="M204.778 216.918C205.668 218.584 205.613 219.254 204.492 220.378C202.33 222.54 198.947 219.571 200.707 217.06C201.907 215.345 203.898 215.276 204.778 216.918Z"/>
<path d="M194.834 216.685C196.088 217.939 196.116 219.133 194.915 220.13C193.442 221.353 191.071 220.7 190.831 219.005C190.429 216.175 192.895 214.746 194.834 216.685Z"/>
<path d="M304.641 320.64C304.641 321.819 304.212 321.921 299.199 321.921H293.76V324.159V326.4H298.56C302.934 326.4 303.36 326.513 303.36 327.681C303.36 328.846 302.934 328.959 298.56 328.959H293.76V331.2V333.441H299.199C304.212 333.441 304.641 333.54 304.641 334.719C304.641 335.923 304.212 336 297.6 336H290.559V327.681V319.359H297.6C304.212 319.359 304.641 319.438 304.641 320.64Z"/>
<path d="M278.4 326.4V333.441H282.879C286.932 333.441 287.361 333.562 287.361 334.719C287.361 335.91 286.932 336 281.28 336H275.199V327.681V319.359H276.801H278.4V326.4Z"/>
<path fill-rule="evenodd" clip-rule="evenodd" d="M269.002 320.097C271.544 321.433 272.285 324.837 270.378 326.417C269.507 327.141 269.541 327.387 270.699 328.618C274.75 332.93 271.129 336 261.994 336H255.36V327.681V319.359H261.483C264.858 319.359 268.232 319.69 269.002 320.097ZM258.561 326.458V324.19V321.921H263.059C270.628 321.921 270.399 325.932 262.813 326.269L258.561 326.458ZM258.561 331.308C258.561 330.132 258.753 328.98 258.987 328.746C260.287 327.446 268.005 328.746 268.516 330.351C269.226 332.594 267.704 333.441 262.961 333.441H258.561V331.308Z"/>
<path fill-rule="evenodd" clip-rule="evenodd" d="M249.028 327.135C250.927 331.411 252.576 335.155 252.693 335.455C253.332 337.091 249.546 335.833 248.657 334.115C247.188 331.273 239.583 331.325 238.587 334.186C238.092 335.604 237.558 336 236.133 336H234.311L235.807 332.64C243.491 315.393 243.763 315.279 249.028 327.135ZM247.041 330C247.041 330.132 245.601 330.24 243.84 330.24H243.83C242.146 330.24 241.239 330.24 240.929 329.81C240.567 329.307 241.019 328.218 241.999 325.858L242.004 325.845C242.757 324.038 243.479 322.56 243.613 322.56C243.844 322.56 247.041 329.497 247.041 330Z"/>
<path fill-rule="evenodd" clip-rule="evenodd" d="M229.023 320.388C231.98 322.46 231.873 326.803 228.828 328.191L227.32 328.879L228.632 331.53C229.597 333.481 230.246 334.101 231.091 333.882C233.088 333.358 232.996 335.19 230.98 336.025C228.73 336.956 227.207 335.937 225.855 332.594C224.79 329.96 224.235 329.622 220.959 329.61L218.241 329.601V332.799C218.241 335.787 218.133 336 216.639 336H215.04V327.681V319.359H221.297C226.009 319.359 227.917 319.615 229.023 320.388ZM218.241 327.099V324.48V321.861L222.493 322.051C230.158 322.391 230.158 326.569 222.493 326.909L218.241 327.099Z"/>
<path d="M211.2 320.64C211.2 321.819 210.774 321.921 205.761 321.921H200.319V324.159V326.4H205.44C210.132 326.4 210.561 326.508 210.561 327.681C210.561 328.854 210.132 328.959 205.44 328.959H200.319V331.2V333.441H206.079C211.413 333.441 211.839 333.535 211.839 334.719C211.839 335.925 211.413 336 204.48 336H197.121V327.681V319.359H204.159C210.774 319.359 211.2 319.438 211.2 320.64Z"/>
<path fill-rule="evenodd" clip-rule="evenodd" d="M192.689 321.231C196.948 325.49 194.041 329.76 186.63 330.134L181.761 330.38V333.189C181.761 335.76 181.624 336 180.159 336H178.56V327.681V319.359H184.689C190.61 319.359 190.883 319.423 192.689 321.231ZM181.761 327.681V324.801V321.921H185.555C190.735 321.921 192.718 323.839 190.301 326.509C189.504 327.389 188.312 327.681 185.501 327.681H181.761Z"/>
<path fill-rule="evenodd" clip-rule="evenodd" d="M168.428 319.379C176.062 321.5 177.016 331.924 169.891 335.374C163.071 338.675 155.149 335.303 154.414 328.787C153.606 321.615 160.299 317.121 168.428 319.379ZM162.95 333.815C156.217 332.552 155.587 323.724 162.094 321.825C167.061 320.373 171.519 323.219 171.519 327.834C171.519 331.903 167.545 334.677 162.95 333.815Z"/>
<path fill-rule="evenodd" clip-rule="evenodd" d="M476.857 321.191C478.704 323.474 478.439 326.097 476.195 327.756L474.311 329.149L475.58 331.638C476.379 333.204 477.229 334.057 477.878 333.942C479.451 333.663 479.612 335.18 478.095 335.992C475.991 337.117 474.344 336.161 472.79 332.915C471.375 329.952 471.324 329.917 467.937 329.724L464.511 329.53L464.736 332.765C464.955 335.923 464.918 336 463.2 336H461.439V327.623V319.246L468.538 319.463C475.092 319.663 475.73 319.795 476.857 321.191ZM464.64 327.097V324.48V321.863L469.213 322.051C477.393 322.389 477.393 326.571 469.213 326.909L464.64 327.097Z"/>
<path fill-rule="evenodd" clip-rule="evenodd" d="M496.107 319.379C503.743 321.5 504.697 331.924 497.572 335.374C490.752 338.675 482.83 335.303 482.095 328.787C481.286 321.615 487.98 317.121 496.107 319.379ZM490.631 333.815C483.898 332.552 483.266 323.724 489.775 321.825C494.742 320.373 499.2 323.219 499.2 327.834C499.2 331.903 495.226 334.677 490.631 333.815Z"/>
<path fill-rule="evenodd" clip-rule="evenodd" d="M520.725 320.769C522.079 322.124 522.152 325.795 520.842 326.621C519.994 327.156 520.019 327.379 521.055 328.416C522.248 329.608 522.622 332.519 521.75 333.825C520.687 335.416 518.168 336 512.362 336H506.241V327.621V319.244L512.94 319.461C518.189 319.632 519.873 319.916 520.725 320.769ZM509.439 326.4V324.159V321.921H513.577C517.01 321.921 517.828 322.13 518.377 323.155C519.487 325.233 517.636 326.4 513.235 326.4H509.439ZM509.439 331.254C509.439 330.05 509.8 328.932 510.24 328.767C513.42 327.573 519.039 329.109 519.039 331.169C519.039 333.036 518.003 333.441 513.228 333.441H509.439V331.254Z"/>
<path d="M528.639 324.977C528.639 332.867 531.276 335.729 536.196 333.183C538.646 331.916 538.881 331.185 538.881 324.747C538.881 319.427 538.9 319.359 540.48 319.359C542.394 319.359 542.89 328.343 541.198 332.39C539.098 337.421 529.757 338.039 526.483 333.366C524.544 330.595 524.989 319.359 527.04 319.359C528.626 319.359 528.639 319.413 528.639 324.977Z"/>
<path d="M557.952 320.448C558.858 321.124 559.713 322.02 559.853 322.439C560.266 323.674 558.2 324.052 557.092 322.944C554.715 320.565 549.619 321.016 549.243 323.637C549.024 325.16 549.475 325.382 554.842 326.396C561.32 327.619 563.42 331.208 559.701 334.7C556.376 337.824 546.781 336.52 545.595 332.784C544.894 330.572 546.526 330.031 548.362 331.866C551.215 334.719 557.533 334.666 557.95 331.784C558.144 330.43 555.955 328.963 553.73 328.956C549.446 328.942 545.919 326.663 545.919 323.906C545.919 319.367 553.563 317.171 557.952 320.448Z"/>
<path d="M579.201 320.64C579.201 321.75 578.772 321.921 576 321.921H572.799V328.959V336H571.2H569.601V328.959V321.921H566.4C563.628 321.921 563.199 321.75 563.199 320.64C563.199 319.428 563.628 319.359 571.2 319.359C578.772 319.359 579.201 319.428 579.201 320.64Z"/>
<path d="M389.76 145.778C389.76 153.667 392.396 156.528 397.315 153.984C399.767 152.717 399.999 151.985 399.999 145.548C399.999 140.227 400.02 140.16 401.601 140.16C403.611 140.16 404.051 150.1 402.198 153.683C399.798 158.323 390.726 158.623 387.604 154.164C385.665 151.396 386.11 140.16 388.161 140.16C389.745 140.16 389.76 140.212 389.76 145.778Z"/>
<path d="M415.461 146.529L420.159 152.897L420.342 146.529C420.522 140.235 420.543 140.16 422.102 140.16H423.681V148.479V156.801H421.569C419.639 156.801 419.069 156.273 415.008 150.726C409.622 143.372 409.786 143.399 409.907 149.919C410.022 156.129 409.86 156.801 408.252 156.801C407.124 156.801 407.04 156.217 407.04 148.479V140.16H408.9C410.517 140.16 411.383 141.001 415.461 146.529Z"/>
<path fill-rule="evenodd" clip-rule="evenodd" d="M442.036 141.819C449.775 147.556 444.973 156.315 433.876 156.701L427.521 156.92V148.479V140.041L433.876 140.26C439.098 140.44 440.552 140.719 442.036 141.819ZM430.719 154.239V148.406V142.572L434.893 142.836C445.056 143.484 444.707 154.239 434.525 154.239H430.719Z"/>
<path d="M462.72 141.441C462.72 142.62 462.294 142.719 457.281 142.719H451.839V144.96V147.201H456.904C464.36 147.201 464.216 149.341 456.741 149.628L451.839 149.814V152.028V154.239H457.281C462.294 154.239 462.72 154.341 462.72 155.52C462.72 156.722 462.294 156.801 455.679 156.801H448.641V148.479V140.16H455.679C462.294 140.16 462.72 140.237 462.72 141.441Z"/>
<path fill-rule="evenodd" clip-rule="evenodd" d="M479.987 141.112C483.143 142.746 483.35 146.872 480.374 148.823C478.381 150.129 479.844 155.069 482.125 154.742C484.03 154.47 484.18 156.033 482.331 156.876C480.023 157.926 478.923 157.252 477.277 153.782C475.843 150.753 475.791 150.718 472.474 150.526L469.119 150.332V153.567C469.119 156.589 469.016 156.801 467.52 156.801H465.921V148.479V140.16H472.032C476.193 140.16 478.731 140.463 479.987 141.112ZM469.119 147.84V145.281V142.719H473.002C477.348 142.719 479.361 143.497 479.361 145.175C479.361 147.204 477.957 147.84 473.472 147.84H469.119Z"/>
<path d="M497.685 140.563C500.39 141.848 501.569 143.691 500.056 144.271C499.484 144.492 498.503 144.207 497.877 143.641C495.951 141.898 492.044 141.721 490.604 143.313C488.92 145.173 489.771 145.849 495.41 147.128C504.893 149.282 504.282 157.434 494.638 157.438C489.923 157.442 483.959 153.212 486.451 151.636C487.653 150.874 488.319 150.893 488.319 151.69C488.319 154.307 496.237 155.812 498.257 153.581C499.953 151.709 498.637 150.664 493.133 149.51C490.092 148.873 488.302 148.128 487.532 147.176C483.706 142.451 491.274 137.522 497.685 140.563Z"/>
<path d="M520.32 141.441C520.32 142.548 519.894 142.719 517.119 142.719H513.921V149.76V156.801H512.342C510.774 156.801 510.762 156.758 510.582 149.919L510.399 143.04L507.36 142.844C504.843 142.683 504.321 142.435 504.321 141.404C504.321 140.239 504.822 140.16 512.319 140.16C519.894 140.16 520.32 140.229 520.32 141.441Z"/>
<path fill-rule="evenodd" clip-rule="evenodd" d="M536.684 148.335C540.716 157.448 540.561 156.801 538.719 156.797C537.805 156.793 536.897 156.119 536.229 154.946C534.603 152.087 527.819 152.049 526.203 154.89C525.508 156.111 524.605 156.793 523.68 156.797C521.798 156.801 521.833 156.566 524.554 150.639C525.827 147.869 527.409 144.357 528.069 142.838C530.383 137.518 532.491 138.862 536.684 148.335ZM529.398 146.732C531.084 142.664 531.226 142.635 532.618 146.083C532.766 146.45 532.904 146.79 533.032 147.104C533.95 149.354 534.346 150.326 534.024 150.742C533.779 151.059 533.119 151.053 531.957 151.044C531.744 151.042 531.515 151.041 531.268 151.041L530.967 151.041C529.407 151.042 528.572 151.043 528.289 150.648C527.961 150.192 528.37 149.209 529.249 147.091L529.398 146.732Z"/>
<path d="M551.787 146.58L556.479 152.999L556.662 146.58C556.842 140.233 556.863 140.16 558.422 140.16H560.001V148.479V156.801H557.889C555.959 156.801 555.389 156.273 551.328 150.726C545.908 143.326 546.204 143.326 546.317 150.72C546.409 156.726 546.392 156.801 544.886 156.801H543.36V148.479V140.16H545.226C546.854 140.16 547.697 140.986 551.787 146.58Z"/>
<path fill-rule="evenodd" clip-rule="evenodd" d="M577.052 141.206C579.757 142.491 581.123 144.979 581.111 148.608C581.09 154.7 578.102 156.797 569.439 156.799L563.841 156.801V148.479V140.16H569.343C573.11 140.16 575.541 140.49 577.052 141.206ZM567.039 154.239V148.406V142.572L571.286 142.84C581.157 143.47 580.692 154.239 570.793 154.239H567.039Z"/>
<path fill-rule="evenodd" clip-rule="evenodd" d="M596.938 144.801C598.042 147.352 599.683 151.096 600.584 153.12L602.223 156.801H600.311C599.082 156.801 598.401 156.474 598.401 155.885C598.401 152.379 589.569 151.538 587.841 154.881C586.303 157.853 583.275 157.705 584.552 154.719C591.974 137.355 593.27 136.318 596.938 144.801ZM596.463 151.041H592.967C592.667 151.041 592.39 151.043 592.137 151.046C590.936 151.058 590.251 151.065 590.003 150.74C589.674 150.308 590.112 149.291 591.132 146.925L591.133 146.921C591.295 146.546 591.471 146.137 591.661 145.692L591.779 145.416C592.248 144.312 592.513 143.689 592.811 143.673C593.198 143.652 593.64 144.652 594.655 146.951L594.851 147.393L596.463 151.041Z"/>
<path fill-rule="evenodd" clip-rule="evenodd" d="M619.114 141.487C621.018 142.984 621.395 145.91 619.849 147.193C619.018 147.882 619.056 148.182 620.17 149.597C623.735 154.13 620.54 156.801 611.549 156.801H604.8V148.479V140.16H611.113C616.531 140.16 617.666 140.348 619.114 141.487ZM608.001 147.201V144.96V142.719H611.787C616.31 142.719 617.601 143.132 617.601 144.58C617.601 146.525 616.163 147.201 612.033 147.201H608.001ZM608.001 152.106C608.001 150.933 608.216 149.754 608.481 149.485C609.314 148.637 616.289 149.457 617.363 150.528C619.528 152.694 617.484 154.239 612.457 154.239H608.001V152.106Z"/>
<path d="M627.84 147.201V154.239H632.319C636.372 154.239 636.801 154.362 636.801 155.52C636.801 156.71 636.372 156.801 630.72 156.801H624.639V148.479V140.16H626.241H627.84V147.201Z"/>
<path d="M653.439 141.441C653.439 142.62 653.013 142.719 648 142.719H642.561V144.96V147.201H647.727C655.3 147.201 655.112 149.34 647.512 149.628L642.561 149.814V152.028V154.239H648.321C653.652 154.239 654.081 154.335 654.081 155.52C654.081 156.726 653.652 156.801 646.719 156.801H639.36V148.479V140.16H646.401C653.013 140.16 653.439 140.237 653.439 141.441Z"/>
<path d="M325.761 141.441C325.761 142.62 325.332 142.719 320.319 142.719H314.88V144.96V147.201H320.047C327.619 147.201 327.431 149.34 319.834 149.628L314.88 149.814V152.003V154.189L320.473 154.376C325.204 154.531 326.099 154.733 326.279 155.679C326.473 156.695 325.795 156.801 319.087 156.801H311.679V148.479V140.16H318.72C325.332 140.16 325.761 140.237 325.761 141.441Z"/>
<path d="M300.159 147.201V154.239H304.641C308.694 154.239 309.12 154.362 309.12 155.52C309.12 156.71 308.694 156.801 303.039 156.801H296.961V148.479V140.16H298.56H300.159V147.201Z"/>
<path fill-rule="evenodd" clip-rule="evenodd" d="M291.548 141.731C293.403 143.585 293.558 145.486 291.986 147.039C290.899 148.113 290.903 148.203 292.092 149.18C293.647 150.459 293.731 153.901 292.245 155.391C291.385 156.253 289.693 156.526 284.139 156.697L277.119 156.914V148.537V140.16H283.549C289.523 140.16 290.089 140.271 291.548 141.731ZM280.32 147.201V144.931V142.662L284.573 142.85C292.164 143.188 292.007 147.201 284.402 147.201H280.32ZM280.32 152.106C280.32 150.933 280.535 149.75 280.8 149.48C281.695 148.558 288.851 149.587 289.709 150.76C291.387 153.055 289.707 154.239 284.778 154.239H280.32V152.106Z"/>
<path fill-rule="evenodd" clip-rule="evenodd" d="M270.503 148.113C272.383 152.312 273.921 155.983 273.921 156.273C273.921 157.653 270.96 156.653 269.988 154.944C268.431 152.204 261.299 152.273 259.974 155.04C259.108 156.847 255.487 157.763 256.176 156C263.491 137.274 265.223 136.32 270.503 148.113ZM261.759 150.739C261.759 150.572 262.506 148.773 263.418 146.738L265.077 143.04L266.619 146.483C268.658 151.035 268.656 151.041 264.96 151.041C263.199 151.041 261.759 150.904 261.759 150.739Z"/>
<path d="M241.951 146.559C245.274 154.341 244.923 154.332 248.124 146.721C250.454 141.172 250.94 140.456 252.501 140.269C253.757 140.118 254.162 140.3 253.924 140.909C246.735 159.329 244.961 160.426 240 149.514C235.724 140.114 235.736 140.16 237.646 140.16C239.028 140.16 239.549 140.932 241.951 146.559Z"/>
<path d="M232.959 148.479V156.801H231.36H229.761V148.479V140.16H231.36H232.959V148.479Z"/>
<path d="M226.56 141.441C226.56 142.62 226.134 142.719 221.121 142.719H215.679V144.96V147.201H220.8C225.492 147.201 225.921 147.306 225.921 148.479C225.921 149.652 225.492 149.76 220.8 149.76H215.679V152.001V154.239H221.439C226.773 154.239 227.199 154.335 227.199 155.52C227.199 156.726 226.773 156.801 219.84 156.801H212.481V148.479V140.16H219.519C226.134 140.16 226.56 140.237 226.56 141.441Z"/>
<path d="M203.532 140.559C205.728 141.439 207.999 143.985 207.999 145.569C207.999 146.402 204.902 145.828 204.557 144.931C202.552 139.705 193.281 142.764 193.281 148.652C193.281 154.723 202.479 157.096 205.884 151.903C206.945 150.28 209.28 149.848 209.28 151.273C209.28 157.968 194.379 159.416 191.082 153.041C186.885 144.924 194.744 137.044 203.532 140.559Z"/>
<path fill-rule="evenodd" clip-rule="evenodd" d="M183.702 141.132C186.899 142.785 186.849 148.107 183.629 148.948C182.734 149.182 182.46 149.612 182.749 150.324C182.982 150.895 183.462 152.164 183.817 153.149C184.282 154.429 184.835 154.883 185.773 154.748C187.711 154.47 187.874 156.027 185.996 156.881C183.905 157.834 181.476 156.386 180.828 153.8C180.121 150.987 179.274 150.399 175.922 150.399H172.8V153.6C172.8 156.588 172.692 156.801 171.201 156.801H169.599V148.479V140.16H175.713C179.925 140.16 182.408 140.461 183.702 141.132ZM172.8 147.84V145.281V142.719H176.682C181.108 142.719 183.039 143.499 183.039 145.281C183.039 147.062 181.108 147.84 176.682 147.84H172.8Z"/>
<path d="M166.401 141.441C166.401 142.62 165.972 142.719 160.959 142.719H155.52V144.96V147.201H160.583C168.04 147.201 167.896 149.341 160.422 149.628L155.52 149.814V152.028V154.239H160.959C165.972 154.239 166.401 154.341 166.401 155.52C166.401 156.722 165.972 156.801 159.36 156.801H152.319V148.479V140.16H159.36C165.972 140.16 166.401 140.237 166.401 141.441Z"/>
<path fill-rule="evenodd" clip-rule="evenodd" d="M146.513 141.097C148.462 142.103 149.121 143.24 149.121 145.599C149.121 149.48 146.65 151.041 140.511 151.041H136.32V153.921C136.32 156.564 136.189 156.801 134.721 156.801H133.119V148.479V140.16H138.912C142.742 140.16 145.317 140.477 146.513 141.097ZM136.32 148.479V145.599V142.719H139.882C143.988 142.719 145.92 143.532 145.92 145.258C145.92 147.504 144.161 148.479 140.114 148.479H136.32Z"/>
</svg>
