<svg width="824" height="271" viewBox="0 0 824 271" xmlns="http://www.w3.org/2000/svg">
<path fill-rule="evenodd" clip-rule="evenodd" d="M599.836 2.72548C597.272 5.40236 597.211 5.68189 596.698 17.6291C596.294 27.0513 595.64 31.6181 593.823 37.8135C592.529 42.2192 590.888 47.8221 590.177 50.2711C589.314 53.2397 588.792 60.1977 588.606 71.2121L588.324 87.7048L592.997 93.6601C598.721 100.955 599.037 103.921 594.905 111.554C589.229 122.033 588.205 132.054 591.9 141.023C593.109 143.959 594.103 147.863 594.103 149.698L594.109 153.034H616.35C635.529 153.034 638.595 152.852 638.595 151.701C638.595 150.631 637.255 150.367 631.865 150.367C624.803 150.367 621.689 149.403 621.689 147.219C621.689 145.648 618.909 145.496 617.42 146.985C616.833 147.571 616.35 148.771 616.35 149.653C616.35 150.534 615.952 151.254 615.463 151.254C612.789 151.254 615.299 145.119 618.289 144.344C621.47 143.521 621.671 142.014 618.65 141.637C616.393 141.352 615.418 139.115 612.941 128.566C612.482 126.609 610.623 119.402 608.809 112.55C603.89 93.9791 599.472 76.2194 599.46 74.9615C599.42 71.5858 601.107 74.7914 602.732 81.1873C616.897 136.931 617.766 140.018 619.076 139.209C620.79 138.152 622.81 140.413 623.108 143.719C623.5 148.079 624.378 148.556 632.041 148.571L638.391 148.586L638.978 143.877C639.576 139.088 639.528 138.836 631.066 103.654C629.887 98.7616 628.088 91.1534 627.067 86.7507C626.043 82.3449 624.648 76.739 623.968 74.2931C623.284 71.8471 622.439 68.444 622.09 66.7304C620.352 58.2014 611.118 43.8113 607.138 43.4255C605.6 43.2735 604.54 42.7509 604.786 42.2618C605.029 41.7726 606.506 41.5021 608.068 41.6571C610.69 41.9214 610.985 41.6753 611.978 38.3634C612.978 35.0181 613.251 34.7932 616.132 34.9634C619.602 35.167 620.425 34.2281 621.236 29.1387C621.643 26.6046 622.187 25.8025 623.509 25.8025C625.505 25.8025 625.824 21.415 624.348 14.2351C623.788 11.5187 623.861 8.85706 624.569 5.94927C625.955 0.273449 625.472 0.0303761 612.738 0.0151839L602.45 0L599.836 2.72548ZM172.145 6.15285C165.138 7.59307 157.885 17.9481 157.843 26.5712C157.812 32.4233 159.447 39.1473 160.902 39.1473C161.38 39.1473 163.336 40.7486 165.257 42.7084C167.174 44.6652 169.562 46.2664 170.559 46.2664C172.841 46.2664 172.856 47.494 170.714 58.5843C166.624 79.7228 166.73 78.164 168.845 86.3618C169.908 90.491 171.093 95.2674 171.476 96.9811C171.859 98.6948 173.002 103.45 174.013 107.549C175.821 114.862 175.824 115.06 174.196 118.25C171.671 123.2 169.893 130.474 169.286 138.353C168.778 144.946 167.338 160.397 163.895 196.186C163.142 204.016 161.939 216.629 161.222 224.213C160.504 231.797 159.496 242.407 158.982 247.791C158.466 253.176 157.809 260.48 157.518 264.029L156.992 270.479H161.079C163.798 270.479 165.418 270.03 165.919 269.14C166.584 267.945 167.186 267.951 171.336 269.185C176.402 270.689 184.943 270.622 185.45 269.076C185.775 268.088 183.539 266.839 175.043 263.266C172.351 262.133 170.033 261.142 169.893 261.066C169.753 260.987 171.294 254.965 173.315 247.685C177.565 232.38 179.492 225.182 179.492 224.614C179.492 224.395 176.511 224.213 172.871 224.213C169.231 224.213 166.004 223.812 165.7 223.323C165.035 222.247 162.732 222.332 190.33 222.405C216.843 222.472 214.719 223.538 212.905 211.09C211.414 200.847 208.409 178.676 207.485 171.119L206.926 166.516L204.048 166.984L201.168 167.452L198.196 159.765C196.562 155.535 194.742 151.792 194.152 151.442C192.8 150.646 180.421 127.864 180.391 126.12C180.361 124.239 182.181 125.892 183.821 129.234C186.036 133.743 193.745 147.984 194.262 148.513C194.459 148.72 196.647 147.939 199.12 146.781C204.325 144.344 204.31 144.904 199.548 132.659C193.736 117.703 191.117 109.791 189.658 102.763C188.844 98.8498 187.689 93.3289 187.091 90.4941C186.495 87.6622 186.316 85.1525 186.693 84.9185C187.68 84.3078 188.057 85.2284 189.266 91.199C191.694 103.183 193.961 111.994 196.127 117.889C197.388 121.316 198.992 125.719 199.694 127.679C200.396 129.635 201.402 131.638 201.928 132.127C202.584 132.738 202.69 132.668 202.259 131.908C200.77 129.268 201.511 109.904 203.404 102.028C206.552 88.9323 206.622 89.1936 195.732 73.0412C188.018 61.6015 185.693 58.7605 183.718 58.3655C180.744 57.773 180.461 56.0533 183.338 56.0533C184.988 56.0533 185.572 55.3787 186.231 52.717C186.963 49.7424 187.395 49.3474 190.169 49.0891C193.952 48.7336 196.109 46.9349 196.862 43.5045C197.172 42.0886 197.996 40.9279 198.692 40.9279C200.414 40.9279 200.284 39.7186 198.096 35.4344C196.252 31.8156 196.249 31.7761 197.972 29.4486C200.676 25.7903 200.992 23.7029 199.421 19.9413C194.939 9.20649 184.049 3.70082 172.145 6.15285ZM436.878 18.7472C430.297 20.7283 427.705 29.2967 430.334 40.384C431.145 43.7992 431.063 43.9572 423.965 52.8386C411.07 68.9727 409.976 74.524 414.655 100.096C415.998 107.436 417.673 116.843 418.371 121.003C419.07 125.163 420.109 131.276 420.674 134.585C421.243 137.897 422.264 140.917 422.941 141.297C424.181 141.99 423.564 203.157 421.823 252.461L421.218 269.589H440.488H459.758V267.386C459.758 263.655 451.029 259.717 441.965 259.359C435.675 259.11 435.201 258.775 440.184 258.113L444.189 257.578L445.252 252.24C445.836 249.305 446.75 243.298 447.279 238.895C447.811 234.489 448.817 227.081 449.515 222.433C450.214 217.784 451.399 209.577 452.147 204.196C452.897 198.812 454.76 185.597 456.291 174.832C459.478 152.381 460.515 143.837 460.107 143.354C459.949 143.166 453.344 143.053 445.426 143.102C424.95 143.229 425.691 141.999 446.413 141.467L463.763 141.023L464.033 136.797L464.304 132.57L460.475 132.567C458.281 132.564 455.459 131.841 453.873 130.875C451.39 129.362 440.184 113.896 440.184 111.985C440.184 109.855 442.114 111.955 446.756 119.144C454.544 131.203 452.335 130.301 474.859 130.629L494.226 130.914L493.789 134.804C493.138 140.555 494.077 143.427 496.49 143.083C498.237 142.834 498.434 142.345 498.216 138.799L497.973 134.795L502.88 135.098C507.51 135.387 507.835 135.269 508.698 133.002C509.743 130.255 511.731 131.097 512.475 134.6C512.846 136.338 514.143 140.768 521.122 164.155C525.546 178.983 531.924 200.635 533.96 207.754C535.221 212.156 537.01 218.163 537.934 221.099C538.861 224.037 540.28 228.841 541.088 231.776C541.896 234.711 543.352 239.718 544.324 242.896C545.296 246.078 546.925 251.583 547.943 255.132C549.581 260.835 550.042 261.583 551.932 261.583C554.646 261.583 554.63 261.306 551.285 250.049C548.307 240.019 544.734 227.847 539.523 209.978C537.74 203.862 533.647 190.049 530.426 179.28C522.736 153.557 521.566 149.592 518.956 140.346C515.702 128.833 512.487 124.731 504.934 122.455C500.121 121.009 499.796 121.179 499.796 125.157C499.796 126.788 499.395 128.122 498.905 128.122C498.416 128.122 498.015 125.819 498.009 123.005L498.003 117.889L483.257 114.99C465.173 111.435 466.124 111.961 462.48 103.505C460.828 99.6702 458.783 94.9362 457.929 92.9764C457.078 91.0197 453.496 82.6123 449.968 74.2931L443.557 59.1677L445.207 56.114C446.219 54.2423 447.893 52.7322 449.528 52.2157C453.514 50.9578 455.276 49.0162 455.881 45.2273C456.206 43.1945 456.92 41.8181 457.646 41.8181C458.412 41.8181 458.868 40.8185 458.868 39.1473C458.868 37.6798 459.269 36.4796 459.758 36.4796C460.247 36.4796 460.648 34.8783 460.648 32.9216C460.648 30.2811 460.287 29.3605 459.254 29.3605C458.263 29.3605 458.023 29.877 458.424 31.141C458.962 32.8365 458.582 32.9216 450.494 32.9216C442.175 32.9216 441.986 32.9671 441.439 35.1457C440.731 37.9684 439.294 38.0414 439.294 35.2521C439.294 31.9857 440.999 31.2383 449.126 30.9587C456.528 30.7005 456.641 30.661 456.398 28.5037C455.662 21.9345 444.627 16.4167 436.878 18.7472ZM195.507 26.4132C195.507 28.1451 192.126 32.0313 190.618 32.0313C190.056 32.0313 187.304 34.2311 184.502 36.9232C181.704 39.6153 178.829 41.8181 178.115 41.8181C176.198 41.8181 176.547 40.3171 178.592 39.7824C179.565 39.5302 180.744 38.3148 181.208 37.0873C181.676 35.8567 182.883 34.5897 183.891 34.2706C184.897 33.9516 186.137 32.9155 186.641 31.9705C187.149 31.0256 188.218 30.2508 189.017 30.2508C190.834 30.2508 193.727 27.7076 193.727 26.1094C193.727 25.45 194.128 24.9122 194.617 24.9122C195.106 24.9122 195.507 25.5867 195.507 26.4132ZM47.3648 32.4901C40.4524 36.2152 38.3923 40.6331 39.2917 49.7849C39.714 54.0418 39.5044 56.8888 38.5685 59.6872C36.1408 66.9582 36.0223 69.626 37.8666 75.2167C41.6374 86.6322 48.7017 109.174 48.7017 109.791C48.7017 110.147 47.4408 110.314 45.9033 110.162C42.8224 109.855 43.5151 111.55 33.5764 79.9142L30.5926 70.4099L26.0775 70.9021C17.3754 71.8471 14.4889 75.1195 10.5267 88.5282C7.27255 99.5486 3.31344 112.401 1.42353 118.095C-0.572729 124.099 -0.551457 125.157 2.00995 147.252C2.69057 153.123 3.49878 161.424 3.8087 165.696C4.92077 181.079 14.8899 188.821 14.8899 174.304C14.8899 166.963 15.054 166.17 16.6704 165.747C17.6488 165.492 18.4479 164.957 18.4479 164.562C18.4479 164.164 18.8369 160.907 19.3109 157.325C19.7849 153.742 20.7997 142.403 21.5654 132.127C23.6619 104.042 24.6281 101.9 26.3601 121.526C27.1926 130.96 27.1409 136.022 26.0866 148.218C24.4246 167.464 23.1059 183.981 21.5836 204.639C19.5631 232.07 18.3841 247.363 17.6002 256.244C16.6644 266.849 15.7285 266.031 28.7938 266.031H39.9206L39.6411 263.585C39.4618 262.033 38.5989 260.811 37.2833 260.249C35.4967 259.48 35.284 258.924 35.7549 256.244C36.0557 254.531 36.6817 249.684 37.1435 245.47C37.6053 241.259 38.1887 237.254 38.4379 236.573C38.687 235.893 39.2704 232.733 39.7292 229.552C40.188 226.37 41.6495 217.762 42.9773 210.422C44.3021 203.084 45.6785 195.074 46.037 192.628C46.8969 186.74 50.3638 166.759 51.2085 162.821C51.8557 159.807 56.7081 157.401 56.7081 160.093C56.7081 160.615 55.9059 161.041 54.9275 161.041C53.9492 161.041 53.15 161.402 53.15 161.843C53.15 162.283 52.3388 167.376 51.3513 173.158C49.7044 182.793 49.6315 185.126 50.4762 201.051C50.9806 210.61 51.7676 228.798 52.2203 241.468C52.6761 254.139 53.4022 264.858 53.8337 265.293C54.2652 265.724 60.9953 265.967 68.7859 265.831L82.9542 265.588V263.436C82.9542 261.556 82.1368 261.015 76.4549 259.119L69.9527 256.952L70.5026 237.245C70.8065 226.407 71.6299 200.376 72.3348 179.399C73.0367 158.422 73.614 139.738 73.614 137.879V134.5L58.5494 134.202C44.9311 133.935 43.2477 133.728 40.978 132.045C35.0196 127.63 34.8252 118.9 40.6012 115.026C43.9101 112.805 78.0623 111.766 78.0623 113.887C78.0623 114.376 77.7159 114.777 77.2935 114.777C74.802 114.777 73.3739 122.932 75.0208 127.776L76.6494 132.57H80.5872C83.9356 132.57 84.9656 132.106 87.4663 129.45C93.1087 123.47 92.6286 119.466 82.9602 91.6426C81.3438 86.9938 79.5693 81.7889 79.0133 80.0752C76.9593 73.7279 74.5103 72.2299 63.502 70.5922C54.1831 69.2067 54.7118 69.0001 53.1652 74.682C52.4907 77.1583 51.6096 79.188 51.2085 79.188C50.2635 79.188 50.2939 77.6991 51.3179 73.8494C51.7736 72.1357 52.5879 69.0335 53.1257 66.9522C54.0646 63.3395 54.256 63.1723 57.495 63.1723C61.2354 63.1723 63.8271 61.094 63.8271 58.0951C63.8271 57.0924 64.684 55.7008 65.7323 55.005C68.2359 53.343 67.4672 44.9903 64.8785 45.7104C61.524 46.6432 47.3952 47.2904 48.2551 46.473C49.3125 45.4673 62.4963 43.5956 68.4972 43.5956C71.0009 43.5956 72.7237 43.1945 72.7237 42.6112C72.7237 42.0004 71.4931 41.7665 69.4938 42.0005C66.5496 42.3438 66.1607 42.122 65.0577 39.4816C62.3596 33.0249 53.1349 29.3787 47.3648 32.4901ZM329.412 58.6511C315.727 59.6447 310.494 66.7 314.198 79.1697C315.666 84.1042 315.389 91.8461 313.669 94.0247C313.214 94.602 310.163 95.3465 306.891 95.6807C295.357 96.8596 294.491 97.7833 289.417 114.331C280.14 144.578 280.645 141.917 281.766 154.742C284.534 186.339 284.68 187.156 288.466 191.772C293.418 197.818 294.266 197.229 294.266 187.733C294.266 180.642 294.448 179.727 295.855 179.727C297.608 179.727 298.808 170.666 300.562 144.165C301.033 137.089 301.81 130.902 302.29 130.419C303.618 129.094 303.381 152.102 301.832 175.279C298.547 224.322 297.721 237.157 296.922 251.349C296.454 259.669 296.068 267.177 296.059 268.034C296.043 270.16 318.665 270.437 319.476 268.319C319.999 266.958 319.245 266.213 315.398 264.287C312.475 262.823 312.345 261.121 314.265 249.505C316.453 236.26 321.047 206.368 321.913 199.744C322.359 196.32 323.104 191.516 323.569 189.07C324.031 186.621 324.9 181.116 325.495 176.835L326.586 169.05L329.333 169.172C331.429 169.263 331.605 169.384 330.08 169.679C328.588 169.965 328.078 170.682 328.078 172.48C328.078 173.808 327.227 179.487 326.191 185.096C324.073 196.536 324.222 211.114 326.738 238.895C327.446 246.725 328.038 256.834 328.05 261.361L328.078 269.589H340.927C349.66 269.589 353.977 269.261 354.409 268.565C355.062 267.505 354.53 267.031 348.685 263.479L345.218 261.373L345.324 203.868C345.388 167.631 345.066 142.907 344.452 137.019C343.574 128.636 343.893 124.753 345.275 126.989C345.549 127.429 346.415 142.579 347.202 160.655C348.949 200.774 348.651 199.577 354.871 191.477C357.797 187.67 358.128 186.646 358.547 180.171C358.8 176.257 359.714 166.309 360.577 158.063C362.145 143.08 362.145 143.074 360.24 136.712C359.191 133.212 356.916 125.141 355.178 118.779C349.456 97.8076 349.295 97.5858 338.63 96.0726C331.229 95.0244 330.782 95.3161 330.761 101.208C330.752 103.417 330.329 104.987 329.743 104.987C329.026 104.987 328.919 102.888 329.378 97.6557C330.123 89.1146 330.18 88.9748 332.988 88.9748C335.792 88.9748 338.755 85.7115 338.755 82.6214C338.755 81.2359 339.411 79.7957 340.265 79.3186C341.66 78.5378 341.587 77.9118 339.341 71.2759C337.391 65.515 337.102 63.7071 337.898 62.2213C338.907 60.3314 338.491 57.7092 337.227 57.9827C336.844 58.0647 333.328 58.3655 329.412 58.6511ZM743.139 80.0266C735.096 83.3203 736.667 99.6519 745.029 99.6519C746.053 99.6519 746.247 100.083 745.74 101.208C745.351 102.064 744.871 106.71 744.667 111.532L744.302 120.301L736.044 128.438C722.204 142.075 714.565 163.772 717.263 181.781L717.88 185.88L722.058 182.911C765.936 151.704 819.328 203.852 788.992 248.293L785.388 253.574H802.68C817.216 253.574 820.197 253.352 821.373 252.176C823.603 249.946 823.083 249.341 817.654 247.816C809.149 245.427 807.487 244.586 808.125 242.994C808.438 242.207 809.836 238.561 811.227 234.89C812.619 231.22 815.991 222.612 818.72 215.76C826.662 195.813 825.885 190.429 814.749 188.25C800.483 185.464 795.956 183.893 796.454 181.909C797.032 179.612 794.033 175.279 791.866 175.279C791.088 175.279 788.415 174.705 785.923 174.003C775.054 170.937 762.065 168.145 752.406 166.792C750.164 166.48 747.772 165.881 747.095 165.462C744.752 164.012 747.201 163.371 751.613 164.277C754.05 164.775 756.04 164.845 756.04 164.432C756.04 163.292 752.692 151.032 751.583 148.121C749.948 143.819 751.382 132.188 753.831 129.887L755.852 127.988L759.47 129.836C764.332 132.315 764.818 132.212 766.349 128.344C769.385 120.681 769.248 120.869 771.132 121.875C772.83 122.784 772.879 122.495 772.806 112.344C772.7 98.0233 770.506 94.1918 760.731 91.2445C759.391 90.8404 758.449 89.5309 757.824 87.2065C756.101 80.8075 749.325 77.4956 743.139 80.0266ZM41.3031 116.925C36.8214 121.079 37.6904 128.572 42.9348 130.96C45.8821 132.303 46.3105 131.765 49.0694 123.255C51.7615 114.954 51.7797 114.777 50.0356 114.777C49.1363 114.777 48.6775 115.722 48.6288 117.667L48.5559 120.559L47.2919 117.667C45.7818 114.218 44.4084 114.045 41.3031 116.925ZM56.3191 116.904C56.6108 118.074 56.4194 119.299 55.8907 119.624C55.3225 119.976 54.9275 119.49 54.9275 118.439C54.9275 115.142 53.2412 115.582 52.2841 119.128C51.3665 122.537 51.9377 132.573 53.0498 132.567C53.6635 132.564 58.5646 117.615 58.5159 115.889C58.5007 115.276 57.8779 114.777 57.1365 114.777C56.1551 114.777 55.9302 115.361 56.3191 116.904ZM64.1917 116.333C64.4561 117.19 64.3285 118.445 63.9031 119.119C63.2984 120.085 63.0007 119.94 62.5297 118.454C62.1985 117.409 61.606 116.555 61.211 116.555C60.099 116.555 58.209 124.285 59.0082 125.576C59.4001 126.208 59.9501 128.14 60.2357 129.872L60.7492 133.014L62.5844 127.679C67.0904 114.592 67.054 114.777 65.1003 114.777C64.1796 114.777 63.8697 115.306 64.1917 116.333ZM67.607 118.341C66.5526 122.452 67.0813 132.862 68.3058 132.106C70.6545 130.653 74.2794 114.777 72.2619 114.777C71.2653 114.777 71.0556 115.358 71.4688 117.001C72.2254 120.019 70.6181 119.836 69.5182 116.777C68.6431 114.349 68.6279 114.361 67.607 118.341ZM49.3064 129.058C48.4678 132.194 48.5468 132.57 50.0356 132.57C51.4759 132.57 51.6399 131.355 50.5674 128.614C49.9384 127.01 49.8473 127.044 49.3064 129.058ZM56.7385 128.955C55.4532 131.358 55.5899 132.57 57.1517 132.57C58.0419 132.57 58.4886 131.68 58.4886 129.903C58.4886 126.8 58.0268 126.551 56.7385 128.955ZM64.4318 129.058C63.5932 132.194 63.6722 132.57 65.161 132.57C66.6012 132.57 66.7653 131.355 65.6928 128.614C65.0638 127.01 64.9726 127.044 64.4318 129.058ZM71.5023 129.243C70.7153 132.178 70.8065 132.57 72.2771 132.57C73.1005 132.57 73.614 131.735 73.614 130.398C73.614 127.514 72.1768 126.731 71.5023 129.243ZM198.816 149.109C197.458 149.847 196.474 150.731 196.635 151.075C197.868 153.73 199.147 156.766 200.542 160.372C203.046 166.832 207.075 165.741 207.075 158.604C207.075 150.692 203.492 146.575 198.816 149.109ZM584.298 157.097C582.548 161.703 583.207 203.269 585.057 204.946C587.689 207.325 668.77 207.179 670.933 204.791C672.82 202.707 673.191 157.738 671.337 155.881C670.538 155.082 659.627 154.815 627.717 154.815H585.167L584.298 157.097ZM183.858 176.613C195.829 217.58 196.164 218.874 194.815 218.874C193.997 218.874 190.4 207.41 183.925 184.175C183.041 180.994 181.716 176.391 180.987 173.942C177.632 162.706 176.942 159.792 177.444 158.978C178.133 157.859 179.376 161.278 183.858 176.613ZM743.139 176.117C706.993 181.578 691.637 231.171 719.111 253.704C720.092 254.509 721.879 256.029 723.085 257.083C738.484 270.571 766.978 268.492 782.526 252.75C813.309 221.582 786.567 169.557 743.139 176.117ZM758.164 178.816C791.477 184.27 804.916 226.54 781.034 250.739C764.092 267.906 733.179 267.666 719.269 250.262C718.375 249.14 717.16 247.728 716.567 247.12C708.664 238.995 705.371 218.908 709.944 206.721C717.601 186.302 736.63 175.288 758.164 178.816ZM741.358 180.982C701.643 190.827 698.641 245.51 737.05 259.441C765.48 269.753 794.628 245.637 790.766 214.997C787.865 191.96 763.831 175.41 741.358 180.982ZM670.626 185.066C670.626 185.579 667.806 185.956 663.954 185.956H657.278V189.07C657.278 192.036 657.132 192.182 654.164 192.182C651.195 192.182 651.052 192.036 651.052 189.055V185.926L628.14 186.163L605.23 186.4L605.196 189.07C605.148 193.327 599.135 193.121 598.724 188.846L598.445 185.956H592.274C588.752 185.956 586.1 185.573 586.1 185.066C586.1 184.485 600.781 184.175 628.364 184.175C655.944 184.175 670.626 184.485 670.626 185.066ZM587.473 210.2C587.23 211.3 586.397 218.607 585.626 226.437C584.854 234.267 583.875 243.276 583.45 246.458C583.025 249.639 582.399 256.144 582.058 260.914L581.442 269.589H600.675C617.538 269.589 619.911 269.419 619.911 268.198C619.911 265.019 617.918 263.436 611.024 261.139C602.641 258.35 602.927 259.371 606.512 244.963C607.949 239.177 610.371 229.242 611.89 222.879C613.412 216.517 614.865 210.613 615.12 209.756C615.545 208.319 614.506 208.197 601.748 208.197C588.126 208.197 587.908 208.228 587.473 210.2ZM617.241 209.981C617.241 210.962 618.216 215.465 619.407 219.993C622.81 232.927 628.835 256.08 630.576 262.917L632.163 269.146L650.506 269.386L668.846 269.626V267.493C668.846 264.846 667.342 263.558 662.438 261.993C650.244 258.107 651.344 259.265 650.165 249.098C649.627 244.464 648.622 235.869 647.929 229.995C647.239 224.125 646.419 216.817 646.106 213.758L645.538 208.197H631.391C617.824 208.197 617.241 208.27 617.241 209.981ZM754.32 214.159C761.962 218.671 757.426 229.956 748.632 228.306C742.528 227.16 740.665 219.874 745.296 215.247C748.261 212.281 750.653 211.992 754.32 214.159ZM197.409 227.106C197.899 228.695 199.679 234.802 201.372 240.672C203.061 246.546 205.097 253.552 205.893 256.244C206.692 258.936 207.582 263.139 207.877 265.588L208.409 270.036L212.635 270.306C215.98 270.522 216.862 270.288 216.862 269.194C216.862 267.517 216.71 267.523 221.052 269.054C225.178 270.51 236.684 269.978 236.213 268.353C236.055 267.809 232.087 265.475 227.39 263.166L218.852 258.964L218.271 253.823C217.086 243.337 214.89 226.401 214.574 225.325C214.34 224.532 211.708 224.213 205.385 224.213H196.522L197.409 227.106Z"/>
</svg>
