<svg width="768" height="224" viewBox="0 0 768 224" xmlns="http://www.w3.org/2000/svg">
<path d="M110.743 79.0777C107.442 79.0777 104.508 77.0624 103.225 74.1311H118.262C116.978 77.0624 114.044 79.0777 110.743 79.0777Z"/>
<path fill-rule="evenodd" clip-rule="evenodd" d="M137.502 59.8553V58.5577C137.502 43.827 124.984 32.1908 110.562 32.1908C96.1304 32.1908 83.622 44.0198 83.622 58.5577V59.8553H83.237V63.8553H83.622V71.5657H87.622V63.8553H91.139V69.1841C91.139 76.499 95.1517 82.785 101.03 86.095C89.5473 89.7617 80.8889 99.7542 79.1664 111.969C70.6134 112.806 64 119.946 64 128.727C64 138.078 71.4992 145.567 80.854 145.567C85.1246 145.567 89.0085 144.007 91.9688 141.42L88.2785 168.285H98.659V191.202H102.659V168.285H118.647V191.202H122.647V168.285H132.831L127.598 128.779V111.505H123.598V129.042L128.267 164.285H92.8655L97.1574 133.041C97.5168 131.666 97.708 130.22 97.708 128.727C97.708 128.661 97.7076 128.595 97.7068 128.528H103.903C104.763 131.391 107.42 133.475 110.562 133.475C113.705 133.475 116.361 131.391 117.221 128.528H123.032V124.528H117.221C116.551 122.299 114.791 120.541 112.56 119.873V100.728C117.577 99.9703 121.538 96.1171 122.448 91.155C132.005 95.5766 138.636 105.244 138.636 116.452V133.857H142.636V116.452C142.636 102.158 133.208 90.0594 120.23 86.0232C126.085 82.6589 129.981 76.3376 129.981 69.1841V63.8553H133.502V71.5657H137.502V63.8553H138.069V59.8553H137.502ZM110.562 36.1908C98.2196 36.1908 87.622 46.347 87.622 58.5577V59.8553H108.56V36.7552H112.56V59.8553H133.502V58.5577C133.502 46.1735 122.914 36.1908 110.562 36.1908ZM108.56 119.875C106.331 120.543 104.573 122.3 103.903 124.528H97.1581C95.4366 118.084 89.8653 113.153 83.1924 112.095C84.658 102.779 90.747 94.9927 99.0388 91.1556C99.9271 95.9956 103.717 99.7805 108.56 100.667V119.875ZM68 128.727C68 122.268 72.6705 116.985 78.8557 116.038C78.8544 116.134 78.8536 116.23 78.8533 116.327C78.8531 116.368 78.853 116.41 78.853 116.452H82.853C82.853 116.333 82.8538 116.213 82.8553 116.094C88.9507 117.196 93.708 122.495 93.708 128.727L93.7079 128.759L93.2303 132.237C91.7179 137.646 86.7826 141.567 80.854 141.567C73.7048 141.567 68 135.865 68 128.727ZM125.981 63.8553H95.139V69.1841C95.139 77.7743 102.113 84.5891 110.56 84.5891C119.163 84.5891 125.981 77.6185 125.981 69.1841V63.8553ZM110.744 96.8638C106.596 96.8638 103.245 93.7495 102.875 89.7142C105.371 88.9819 108.011 88.5891 110.744 88.5891C113.476 88.5891 116.117 88.9818 118.612 89.7137C118.243 93.7493 114.891 96.8638 110.744 96.8638ZM110.562 123.582C108.931 123.582 107.611 124.903 107.611 126.528C107.611 128.154 108.931 129.475 110.562 129.475C112.194 129.475 113.513 128.155 113.513 126.528C113.513 124.903 112.194 123.582 110.562 123.582Z"/>
<path d="M138.636 150.88V191.201H142.636V150.88H147.972V146.88H142.636V141.368H138.636V146.88H133.118V150.88H138.636Z"/>
<path d="M83.622 86.5892V76.5127H87.622V86.5892H83.622Z"/>
<path d="M133.5 76.5127V86.5892H137.5V76.5127H133.5Z"/>
<path fill-rule="evenodd" clip-rule="evenodd" d="M236.274 37.1376C224.18 37.1376 214.285 46.9966 214.285 58.9244V69.0008C214.285 77.7566 219.453 85.2297 226.876 88.7054C213.641 92.5835 203.972 104.808 203.972 119.285V133.743H219.237V191.202H223.237V155.643H249.128V191.202H253.128V108.941H249.128V141.75H223.237V133.743H240.998V129.743H235.157V91.4308C235.392 91.425 235.627 91.4221 235.863 91.4221C251.264 91.4221 263.754 103.903 263.754 119.285V154.095H267.754V119.285C267.754 104.976 258.307 92.8672 245.308 88.8436C252.929 85.3994 258.262 77.7576 258.262 69.0008V58.9244C258.262 46.8016 248.356 37.1376 236.274 37.1376ZM231.157 91.8172C218.784 93.9188 209.185 104.165 208.079 116.834H231.157V91.8172ZM231.157 120.834H207.972V129.743H231.157V120.834ZM236.274 86.7875C227.622 86.7875 220.384 80.7648 218.67 72.6859C221.146 75.5639 224.5 77.8119 228.278 79.133L230.674 79.971L230.928 77.445C230.973 76.9959 231.18 76.5841 231.457 76.2962C231.747 75.9951 231.988 75.9474 232.056 75.9474H240.308C240.505 75.9474 240.726 76.0265 240.948 76.2666C241.18 76.518 241.384 76.926 241.436 77.445L241.68 79.8783L244.017 79.1558C248.021 77.9176 251.396 75.7036 253.835 72.8276C252.045 80.7328 244.846 86.7875 236.274 86.7875ZM254.079 61.3059H254.262V60.9243H218.285V61.3059C218.285 66.8265 222.037 71.9403 227.752 74.6064C227.987 74.2082 228.265 73.844 228.575 73.5222C229.431 72.6326 230.657 71.9474 232.056 71.9474H240.308C242.322 71.9474 243.829 73.1232 244.674 74.6622C250.557 72.1608 254.079 67.0646 254.079 61.3059ZM218.401 56.9243C219.419 48.1444 227.052 41.1376 236.274 41.1376C245.518 41.1376 253.147 48.0121 254.15 56.9243H218.401ZM223.237 145.75V151.643H249.128V145.75H223.237Z"/>
<path fill-rule="evenodd" clip-rule="evenodd" d="M353.15 56.5434C353.15 43.405 365.063 32.9508 378.55 34.9611C387.377 36.2682 394.016 42.9252 396.281 51.0853C397.352 50.2782 398.684 49.7794 400.263 49.7794C402.372 49.7794 404.175 50.6045 405.424 52.0539C406.644 53.4704 407.215 55.3383 407.215 57.2754V82.3754C407.215 83.2811 407.47 83.8379 407.765 84.2147C408.082 84.6206 408.546 84.9415 409.116 85.1843C409.686 85.427 410.283 85.5579 410.756 85.6252C410.988 85.6582 411.178 85.6741 411.303 85.6817C411.365 85.6855 411.41 85.6872 411.436 85.6879L411.458 85.6884L413.449 85.6884V87.6884C413.449 93.0789 409.527 98.4824 403.564 98.4824H401.66C405.164 103.598 407.214 109.787 407.214 116.452V153.827H403.214V116.452C403.214 102.75 393.305 91.3506 380.254 89.0229V138.803H376.254V88.6037C375.945 88.5935 375.634 88.5884 375.322 88.5884C359.921 88.5884 347.431 101.07 347.431 116.452V123.398H341.764L323.754 94.9882L327.132 92.8466L343.431 118.557V116.452C343.431 102.311 352.657 90.3192 365.419 86.1555C358.188 82.5713 353.15 75.1631 353.15 66.6204V56.5434ZM398.418 94.4824H403.564C406.264 94.4824 408.589 92.3392 409.257 89.4125C408.732 89.2927 408.145 89.1186 407.548 88.8642C406.56 88.4429 405.465 87.7676 404.614 86.6792C403.74 85.5617 403.215 84.1262 403.215 82.3754V57.2754C403.215 56.0975 402.869 55.2173 402.393 54.6646C401.945 54.1447 401.272 53.7794 400.263 53.7794C398.651 53.7794 397.129 55.3667 397.129 57.8254V61.6724H397.127V65.8874C397.127 74.3698 392.425 82.3125 385.07 86.1051C390.21 87.7526 394.782 90.6679 398.418 94.4824ZM377.961 38.9175C368.24 37.468 359.564 43.9033 357.576 52.7114H374.755V54.7114C374.755 64.231 382.477 71.9484 392.01 71.9484V72.3389C392.735 70.307 393.127 68.1269 393.127 65.8874V57.2764C393.127 48.2694 386.786 40.2239 377.963 38.9178L377.961 38.9175ZM357.15 66.6204V56.7114H370.848C371.805 66.9498 380.032 75.0734 390.319 75.8822C387.645 80.2605 383.249 83.4624 377.963 84.245L377.961 84.2453C371.703 85.1785 365.877 82.8435 361.991 78.7115C364.571 78.1543 366.748 76.3616 367.805 73.9474H358.766C357.729 71.708 357.15 69.2261 357.15 66.6204Z"/>
<path fill-rule="evenodd" clip-rule="evenodd" d="M392.176 191.202V111.322H388.176V139.37H362.285V113.887H358.285V191.202H362.285V153.262H388.176V191.202H392.176ZM362.285 143.37V149.262H388.176V143.37H362.285Z"/>
<path d="M327.634 86.7892L337.72 101.812L341.041 99.5826L330.955 84.5596L327.634 86.7892Z"/>
<path d="M512.543 111.506H525.013V107.506H512.543V111.506Z"/>
<path d="M525.013 99.0474H512.543V95.0474H525.013V99.0474Z"/>
<path fill-rule="evenodd" clip-rule="evenodd" d="M520.063 32.5734C507.969 32.5734 498.074 42.432 498.074 54.3604V64.4363C498.074 72.3931 502.219 79.253 508.422 83.1031C499.12 85.1196 491.432 91.2955 487.036 99.4794V82.5884H469.449V86.5884H483.036V156.773H483.06C483.735 175.904 499.47 191.202 518.779 191.202C538.097 191.202 553.838 175.89 554.5 156.746L574.301 177.195L583.624 168.098L580.83 165.235L574.381 171.528L554.2 150.688C552.639 139.089 545.505 129.255 535.579 123.964H549.954V119.964H529.398V84.5884H528.813C536.586 81.2073 542.051 73.4849 542.051 64.6193V56.5434H547.003V54.5434C547.003 43.6032 537.19 32.7816 525.057 32.7564L524.399 32.7294C523.977 32.7122 523.409 32.6893 522.823 32.6664C521.685 32.6219 520.389 32.5734 520.063 32.5734ZM487.036 139.062C490.371 132.644 495.598 127.366 501.979 123.964H487.604V119.964H515.138C516.336 119.843 517.55 119.781 518.779 119.781C520.008 119.781 521.223 119.843 522.42 119.964H525.398V85.7504C523.689 86.1786 521.901 86.4063 520.063 86.4063C519.992 86.4063 519.922 86.406 519.851 86.4053H514.401C499.074 86.7583 487.037 99.8908 487.037 115.368V116.834H487.036V139.062ZM487.037 155.492C487.037 147.5 489.997 140.198 494.881 134.62L515.944 155.583L494.966 176.461C490.031 170.871 487.037 163.531 487.037 155.492ZM518.78 152.761L497.7 131.782C502.503 127.518 508.61 124.688 515.349 123.964H522.209C528.948 124.688 535.056 127.518 539.859 131.783L518.78 152.761ZM497.797 179.287L518.78 158.405L539.762 179.287C534.168 184.213 526.823 187.202 518.779 187.202C510.735 187.202 503.39 184.214 497.797 179.287ZM521.615 155.583L542.592 176.46C547.527 170.871 550.521 163.531 550.521 155.492C550.521 147.5 547.562 140.198 542.677 134.621L521.615 155.583ZM517.75 56.5434H517.495V52.5434H517.879V51.9774H521.879V52.5434H542.867C541.764 44.4071 534.123 36.7564 525.014 36.7564H524.973L524.237 36.7261C523.816 36.709 523.25 36.6862 522.667 36.6633C521.466 36.6164 520.287 36.5734 520.063 36.5734C510.151 36.5734 502.074 44.6687 502.074 54.3604V64.4363C502.074 66.3634 502.371 68.2117 502.92 69.9406C510.618 69.7161 516.792 63.9045 517.75 56.5434ZM521.777 56.5434C520.853 65.5212 513.782 72.7891 504.689 73.8216C507.819 78.9512 513.449 82.339 519.871 82.4053H519.879C519.94 82.4059 520.002 82.4063 520.063 82.4063C525.239 82.4063 529.915 80.1988 533.201 76.7091C530.627 76.1493 528.454 74.3582 527.398 71.9474H536.429C537.47 69.7031 538.051 67.2187 538.051 64.6193V56.5434H521.777Z"/>
<path fill-rule="evenodd" clip-rule="evenodd" d="M552.905 182.973C552.905 178.426 556.594 174.743 561.14 174.743C565.687 174.743 569.375 178.426 569.375 182.973C569.375 187.52 565.687 191.202 561.14 191.202C556.594 191.202 552.905 187.52 552.905 182.973ZM561.14 178.743C558.8 178.743 556.905 180.639 556.905 182.973C556.905 185.307 558.8 187.202 561.14 187.202C563.481 187.202 565.375 185.307 565.375 182.973C565.375 180.638 563.481 178.743 561.14 178.743Z"/>
<path d="M663.996 74.131C665.279 77.0623 668.213 79.0776 671.514 79.0776C674.815 79.0776 677.749 77.0623 679.033 74.131H663.996Z"/>
<path fill-rule="evenodd" clip-rule="evenodd" d="M655.718 32L649.527 38.723V66.6187C649.527 75.2118 654.505 82.5694 661.707 86.1254C648.895 90.2605 639.624 102.276 639.624 116.452V153.827H643.624V116.452C643.624 105.551 649.896 96.108 659.032 91.5305L670.258 100.602H672.772L683.999 91.5305C693.135 96.1081 699.407 105.552 699.407 116.452V134.422H683.985V138.422H703.407V116.452C703.407 102.262 694.116 90.2362 681.285 86.1129C688.512 82.52 693.505 75.0913 693.505 66.6187V38.1249L687.437 32.063L683.586 36.0936L679.585 32.0962L675.55 36.1268L671.483 32.063L667.632 36.0936L663.63 32.0962L659.629 36.0935L655.718 32ZM679.747 89.8233C677.145 89.021 674.381 88.589 671.515 88.589C668.65 88.589 665.885 89.021 663.283 89.8233L671.515 96.4755L679.747 89.8233ZM689.505 53.5959H653.527V66.6187C653.527 76.481 661.592 84.4053 671.516 84.4053C681.428 84.4053 689.505 76.3098 689.505 66.6187V53.5959ZM689.505 39.7828V49.5959H653.527V40.2841L655.772 37.8465L659.563 41.8142L663.63 37.7504L667.698 41.8142L671.549 37.7836L675.55 41.781L679.585 37.7504L683.652 41.8141L687.503 37.7836L689.505 39.7828Z"/>
<path d="M686.937 123.964C686.937 122.322 685.633 121.017 683.985 121.017V117.017C687.839 117.017 690.937 120.109 690.937 123.964C690.937 127.819 687.839 130.91 683.985 130.91V126.91C685.633 126.91 686.937 125.606 686.937 123.964Z"/>
<path fill-rule="evenodd" clip-rule="evenodd" d="M654.478 106.559V191.202H658.478V158.391H684.553V191.202H688.553V144.315H658.478V106.559H654.478ZM684.553 154.391H658.478V148.315H684.553V154.391Z"/>
<path fill-rule="evenodd" clip-rule="evenodd" d="M666.948 117.017V138.422H683.418V117.017H666.948ZM670.948 134.422V121.017H679.418V134.422H670.948Z"/>
</svg>
