<svg width="12" height="13" viewBox="0 0 12 13" fill="none" xmlns="http://www.w3.org/2000/svg">
<path d="M5.46973 0.719792C5.74432 0.445262 6.17907 0.427791 6.47363 0.668034L6.53027 0.719792L11.7803 5.96979L11.832 6.02643C11.8405 6.03681 11.8467 6.04892 11.8545 6.05964C11.8652 6.07424 11.8752 6.08917 11.8848 6.10456C11.899 6.12742 11.9113 6.15091 11.9229 6.17487C11.9316 6.19284 11.94 6.21082 11.9473 6.22956C11.958 6.25715 11.9663 6.2851 11.9736 6.31354C11.9781 6.33102 11.9831 6.34833 11.9863 6.36628C11.9875 6.37277 11.9883 6.37929 11.9893 6.38581C11.995 6.42316 12 6.46111 12 6.50006C12 6.5386 11.9958 6.57638 11.9902 6.61335C11.9891 6.62055 11.9876 6.62765 11.9863 6.63483C11.9833 6.65151 11.9777 6.66738 11.9736 6.68366C11.9663 6.71276 11.9581 6.74138 11.9473 6.7696C11.9397 6.78905 11.9309 6.80761 11.9219 6.82624C11.9111 6.8485 11.8998 6.87035 11.8867 6.89167C11.8757 6.90952 11.864 6.9266 11.8516 6.94342C11.8445 6.95303 11.8396 6.96437 11.832 6.9737L11.7803 7.03034L6.53027 12.2803C6.23738 12.5732 5.76262 12.5732 5.46973 12.2803C5.17689 11.9874 5.17685 11.5127 5.46973 11.2198L9.43945 7.25006H0.75C0.335786 7.25006 0 6.91428 0 6.50006C6.31299e-05 6.08591 0.335825 5.75006 0.75 5.75006H9.43945L5.46973 1.78034L5.41797 1.7237C5.17772 1.42912 5.19514 0.994373 5.46973 0.719792Z"/>
</svg>
