<svg width="24" height="24" viewBox="0 0 24 24" fill="none" xmlns="http://www.w3.org/2000/svg">
<path fill-rule="evenodd" clip-rule="evenodd" d="M15.4357 0.000904005C15.9936 0.0125315 16.5436 0.135514 17.0532 0.362756C17.5629 0.590023 18.0223 0.916804 18.4037 1.32406C18.7851 1.73129 19.0812 2.21109 19.2746 2.73441C19.3923 3.05284 19.4692 3.38393 19.5068 3.7197C20.0554 3.93352 20.5668 4.23654 21.0175 4.61997C21.6302 5.14111 22.1163 5.79494 22.4389 6.53168C22.7614 7.26836 22.9118 8.0693 22.8793 8.87282C22.8556 9.45559 22.7333 10.0286 22.5239 10.5698C22.9671 11.0319 23.3248 11.5718 23.5769 12.1644C23.9148 12.9591 24.0539 13.8248 23.9812 14.6853C23.9085 15.5458 23.6258 16.376 23.1594 17.1028C22.7916 17.6756 22.3166 18.1692 21.7642 18.5611C21.7783 19.1017 21.7094 19.6425 21.5593 20.1643C21.3589 20.8606 21.0181 21.509 20.5576 22.0684C20.0971 22.6277 19.527 23.0874 18.8822 23.4177C18.2374 23.748 17.531 23.9419 16.808 23.9889C16.0849 24.0357 15.3592 23.9345 14.677 23.6902C13.995 23.4459 13.3704 23.0638 12.8415 22.5687C12.5188 22.2666 12.237 21.9255 12 21.5551C11.763 21.9254 11.4811 22.2667 11.1585 22.5687C10.6296 23.0638 10.004 23.446 9.32187 23.6902C8.63991 23.9342 7.91482 24.0357 7.19202 23.9889C6.46902 23.9419 5.76259 23.7481 5.11776 23.4177C4.47297 23.0874 3.90292 22.6277 3.44243 22.0684C2.98191 21.509 2.63997 20.8607 2.43963 20.1643C2.28959 19.6426 2.22066 19.1016 2.23471 18.5611C1.68239 18.1691 1.20715 17.6756 0.839518 17.1028C0.373086 16.376 0.09146 15.5458 0.01875 14.6853C-0.0538747 13.8249 0.0852143 12.959 0.423139 12.1644C0.674846 11.5726 1.03151 11.0326 1.4739 10.5709C1.26446 10.0296 1.14444 9.4557 1.12074 8.87282C1.08817 8.06938 1.23865 7.2683 1.5611 6.53168C1.88364 5.79508 2.36999 5.14105 2.98245 4.61997C3.43286 4.23683 3.94395 3.93349 4.4921 3.7197C4.52967 3.38394 4.60772 3.05283 4.72536 2.73441C4.91875 2.21119 5.21497 1.73124 5.59626 1.32406C5.97762 0.916913 6.43729 0.590015 6.94677 0.362756C7.45626 0.13558 8.0066 0.0125846 8.56433 0.000904005C9.12199 -0.0106927 9.67649 0.0895135 10.195 0.295181C10.7136 0.500999 11.1866 0.808838 11.5847 1.19981C11.7351 1.34758 11.8741 1.50602 12 1.67392C12.1259 1.506 12.2649 1.34761 12.4153 1.19981C12.8132 0.808996 13.2856 0.501014 13.8039 0.295181C14.3226 0.0893749 14.8778 -0.010692 15.4357 0.000904005ZM8.59921 1.67501C8.2646 1.68204 7.93368 1.7556 7.62802 1.89191C7.3226 2.02825 7.0468 2.22436 6.81815 2.46847C6.58956 2.71264 6.41205 3.00054 6.29604 3.31425C6.18006 3.62818 6.12742 3.96301 6.14235 4.29735V4.30062L6.15325 4.45103C6.18385 4.75253 6.26881 5.04626 6.40395 5.31751L6.47589 5.45157L6.51513 5.52787C6.68835 5.91482 6.54373 6.37747 6.16851 6.5938C5.79294 6.80994 5.31974 6.70276 5.07198 6.35838L5.02511 6.28645L4.90521 6.0641C4.81136 5.87574 4.73292 5.68055 4.66868 5.481C4.45555 5.59822 4.25339 5.73662 4.067 5.89517C3.64811 6.25165 3.31535 6.69922 3.09472 7.20306C2.87411 7.70711 2.77156 8.25548 2.79388 8.80524C2.80388 9.05103 2.84067 9.29395 2.89961 9.53112C3.26858 9.42027 3.67844 9.57632 3.87298 9.92676C4.09705 10.3309 3.95105 10.8414 3.54707 11.0657C3.36004 11.1695 3.18211 11.2892 3.01624 11.4243L3.00752 11.4298C2.55248 11.8015 2.19445 12.2787 1.96439 12.8194C1.73317 13.3631 1.63784 13.956 1.68754 14.5447C1.73733 15.1333 1.92988 15.701 2.24888 16.1981C2.56804 16.6954 3.00415 17.1076 3.51873 17.3981L3.72583 17.506C4.21684 17.7428 4.75596 17.866 5.30306 17.8657C5.76513 17.8656 6.13968 18.2408 6.14017 18.7028C6.14039 19.1649 5.76625 19.5393 5.30415 19.5398C4.85233 19.54 4.40493 19.4801 3.97108 19.3676C3.99222 19.48 4.01783 19.5919 4.04956 19.7022C4.18663 20.1784 4.41914 20.6221 4.73408 21.0047C5.0491 21.3873 5.43964 21.7018 5.88075 21.9278C6.32183 22.1538 6.80539 22.2869 7.29993 22.3191C7.79456 22.3512 8.29166 22.2812 8.75835 22.1142C9.22486 21.9471 9.65223 21.6855 10.014 21.3469C10.3759 21.0081 10.6645 20.5983 10.862 20.1436C11.0594 19.6892 11.1622 19.1992 11.1629 18.7039V12.4902C10.5383 13.1255 9.77631 13.6146 8.92948 13.9126C8.49355 14.0658 8.01591 13.8372 7.86237 13.4014C7.70901 12.9655 7.93781 12.488 8.37358 12.3344C9.15438 12.0597 9.83672 11.5589 10.3334 10.8968C10.8278 10.2376 11.1158 9.44677 11.1629 8.62432V4.19272L11.1509 3.94204C11.1267 3.69321 11.0656 3.4488 10.9689 3.21724C10.8398 2.90832 10.6496 2.62788 10.4108 2.39327C10.172 2.15889 9.889 1.97391 9.57802 1.85049C9.26695 1.72709 8.9338 1.66806 8.59921 1.67501ZM15.4008 1.67501C15.0661 1.66807 14.7331 1.72704 14.422 1.85049C14.1109 1.97399 13.8269 2.15872 13.5881 2.39327C13.3494 2.62782 13.1601 2.90845 13.0311 3.21724C12.9022 3.52607 12.8361 3.85806 12.8371 4.19272V8.62432C12.8842 9.44678 13.1722 10.2376 13.6666 10.8968C14.1012 11.4762 14.6782 11.9312 15.3387 12.2199L15.706 12.366C16.0898 12.5466 16.2814 12.9926 16.1376 13.4014C15.9937 13.8097 15.5654 14.0369 15.1534 13.9377L15.0705 13.9126L14.6672 13.7545C13.9811 13.4545 13.3607 13.0249 12.8371 12.4924V18.7028L12.8426 18.8891C12.8652 19.3209 12.9643 19.7461 13.1369 20.1436C13.3344 20.5983 13.624 21.0081 13.986 21.3469C14.3478 21.6856 14.775 21.9471 15.2416 22.1142C15.7084 22.2813 16.2053 22.3512 16.7001 22.3191C17.1944 22.287 17.6772 22.1536 18.1181 21.9278C18.5592 21.7019 18.9498 21.3872 19.2648 21.0047C19.5798 20.6221 19.8133 20.1784 19.9504 19.7022C19.9821 19.5923 20.0078 19.4807 20.0289 19.3687C19.5956 19.4809 19.1483 19.54 18.6969 19.5398C18.2347 19.5395 17.8596 19.165 17.8598 18.7028C17.8603 18.2409 18.2351 17.8658 18.6969 17.8657C19.2438 17.866 19.7833 17.7436 20.2742 17.5071L20.4813 17.3981L20.6698 17.2837C21.1025 17.0035 21.4717 16.6333 21.7511 16.1981C22.0701 15.7011 22.2627 15.1332 22.3125 14.5447C22.3622 13.9559 22.2669 13.3632 22.0356 12.8194C21.8332 12.3436 21.5322 11.9169 21.1527 11.5682L20.9848 11.4243L20.7276 11.2325L20.454 11.0657L20.3821 11.0199C20.0335 10.7777 19.9177 10.3058 20.1281 9.92676C20.3228 9.57609 20.7313 9.42302 21.1004 9.53439C21.1597 9.29615 21.1961 9.0521 21.2061 8.80524C21.2284 8.2554 21.126 7.70717 20.9053 7.20306C20.6845 6.69898 20.3511 6.25174 19.9319 5.89517C19.7457 5.73681 19.5441 5.59927 19.3313 5.48209C19.2411 5.76128 19.1226 6.03163 18.9749 6.28754C18.7438 6.68764 18.2318 6.82448 17.8315 6.5938C17.4312 6.36269 17.2942 5.85082 17.5252 5.45048C17.7264 5.10174 17.8397 4.7093 17.8576 4.30716C17.8577 4.3039 17.8575 4.30062 17.8576 4.29735C17.8726 3.96293 17.82 3.62824 17.704 3.31425C17.5879 3.00042 17.4106 2.71271 17.1818 2.46847C16.953 2.22411 16.6767 2.02827 16.3709 1.89191C16.0652 1.75565 15.7354 1.68199 15.4008 1.67501Z"/>
</svg>
