<svg width="12" height="14" viewBox="0 0 12 14" fill="none" xmlns="http://www.w3.org/2000/svg">
<path fill-rule="evenodd" clip-rule="evenodd" d="M8.4612 0C8.7161 0 8.92273 0.218663 8.92273 0.488397V1.30167H10.3073C11.2418 1.30181 11.9998 2.10405 12 3.09282V12.2088C12 13.1978 11.2419 13.9999 10.3073 14H1.69265C0.758015 14 0 13.1979 0 12.2088V3.09282C0.000185766 2.10396 0.75813 1.30167 1.69265 1.30167H3.07624V0.488397C3.07624 0.218815 3.28307 0.000245694 3.53777 0C3.79268 0 3.99931 0.218663 3.99931 0.488397V1.30167H7.99966V0.488397C7.99966 0.218693 8.20633 4.89351e-05 8.4612 0ZM0.923077 6.18564V12.2088C0.923077 12.6584 1.26782 13.0232 1.69265 13.0232H10.3073C10.7321 13.0231 11.0769 12.6583 11.0769 12.2088V6.18564H0.923077ZM1.69265 2.27846C1.26793 2.27846 0.923263 2.64343 0.923077 3.09282V5.20885H11.0769V3.09282C11.0767 2.64352 10.732 2.27861 10.3073 2.27846H8.92273V3.09282L8.91346 3.19203C8.87016 3.41421 8.68399 3.58122 8.4612 3.58122C8.23843 3.58118 8.05222 3.4142 8.00893 3.19203L7.99966 3.09282V2.27846H3.99931V3.09282L3.99004 3.19203C3.94671 3.41417 3.76054 3.58122 3.53777 3.58122C3.31514 3.581 3.12875 3.41412 3.08551 3.19203L3.07624 3.09282V2.27846H1.69265Z"/>
</svg>
