<svg width="21" height="17" viewBox="0 0 21 17" fill="none" xmlns="http://www.w3.org/2000/svg">
<path fill-rule="evenodd" clip-rule="evenodd" d="M17.9415 0.5C19.3541 0.500193 20.4998 1.62635 20.5 3.0147V13.9864C20.4998 15.3747 19.3541 16.4998 17.9415 16.5H3.05846C1.64578 16.5 0.500197 15.3748 0.5 13.9864V3.0147C0.500197 1.62623 1.64578 0.5 3.05846 0.5H17.9415ZM11.8326 9.71878L11.8283 9.72092C11.4798 9.93551 11.0834 10.0623 10.675 10.0906L10.4995 10.097C10.0298 10.0969 9.56977 9.96598 9.17172 9.72092L9.16736 9.71878L1.89532 5.17582V13.9864C1.89552 14.6174 2.4164 15.1285 3.05846 15.1285H17.9415C18.5834 15.1283 19.1045 14.6173 19.1047 13.9864V5.17582L11.8326 9.71878ZM3.05846 1.87146C2.4164 1.87146 1.89552 2.38367 1.89532 3.0147V3.5515L9.91734 8.56161C10.0922 8.66804 10.2937 8.72547 10.4995 8.72554L10.6542 8.71483C10.8073 8.69359 10.955 8.64063 11.087 8.55947L19.1047 3.5515V3.0147C19.1045 2.38379 18.5834 1.87165 17.9415 1.87146H3.05846Z">
</svg>
