<svg width="24" height="22" viewBox="0 0 24 22" fill="none" xmlns="http://www.w3.org/2000/svg">
<path fill-rule="evenodd" clip-rule="evenodd" d="M17.0233 0C18.8736 0 20.6476 0.743436 21.956 2.06581C23.2644 3.38819 24 5.18118 24 7.0513C24 10.0191 22.0618 12.216 20.4004 13.8613L20.3993 13.8602L12.5919 21.7522C12.265 22.0826 11.735 22.0826 11.4081 21.7522L3.60392 13.8646L2.9673 13.2234C1.47388 11.6635 0 9.6574 0 7.0513C0 5.18118 0.735575 3.38819 2.04397 2.06581C3.35236 0.743436 5.1264 0 6.97674 0C8.04294 0 9.00041 0.154 9.93205 0.564104C10.6503 0.880349 11.3218 1.33588 12 1.94131C12.6782 1.33588 13.3497 0.880349 14.068 0.564104C14.9996 0.154 15.9571 0 17.0233 0ZM17.0233 1.69231C16.1249 1.69231 15.4074 1.82043 14.7373 2.11539C14.0617 2.4128 13.3814 2.9029 12.5919 3.70083C12.265 4.03128 11.735 4.03128 11.4081 3.70083C10.6186 2.9029 9.93835 2.4128 9.26272 2.11539C8.59256 1.82043 7.87511 1.69231 6.97674 1.69231C5.57048 1.69231 4.22221 2.25732 3.22783 3.26233C2.23346 4.26733 1.67442 5.63001 1.67442 7.0513C1.67442 8.98636 2.76441 10.5714 4.15552 12.0302L12 19.9574L19.222 12.6582L19.2275 12.6516L19.839 12.028C21.2287 10.5578 22.3256 8.97576 22.3256 7.0513C22.3256 5.63001 21.7665 4.26733 20.7722 3.26233C19.7778 2.25732 18.4295 1.69231 17.0233 1.69231Z"/>
</svg>
