<svg width="22" height="24" viewBox="0 0 22 24" fill="none" xmlns="http://www.w3.org/2000/svg">
<path fill-rule="evenodd" clip-rule="evenodd" d="M12.5513 0.00667372C12.7882 -0.0163498 13.0275 0.0204248 13.2462 0.113479L13.3541 0.164702L13.4566 0.224644C13.6566 0.353062 13.8211 0.529813 13.9335 0.737962L13.9841 0.844768L14.0271 0.954842C14.1023 1.17864 14.119 1.41828 14.0755 1.65017L14.0491 1.7646C14.0462 1.7752 14.0426 1.7868 14.0392 1.7973L11.8739 8.51622L11.8596 8.55436C11.8437 8.59648 11.8386 8.64271 11.8442 8.68732C11.8499 8.73189 11.8668 8.77467 11.8927 8.81156C11.9187 8.84859 11.9535 8.87902 11.994 8.89984C12.0344 8.92064 12.0795 8.93159 12.125 8.93145H20.0217C20.3943 8.93067 20.7601 9.03405 21.0757 9.23007C21.3917 9.42642 21.6447 9.70791 21.8059 10.0409C21.967 10.3741 22.0302 10.7465 21.9865 11.1133C21.9482 11.4342 21.8292 11.7401 21.6429 12.0037L21.5592 12.1149C21.5435 12.134 21.5259 12.1528 21.5085 12.1705L10.3442 23.5529L10.3431 23.5518C10.1371 23.7717 9.86543 23.9221 9.56661 23.9768C9.25235 24.0342 8.92771 23.9843 8.64589 23.8351C8.36393 23.6859 8.14098 23.4458 8.01481 23.1551C7.88901 22.8646 7.8663 22.5399 7.95094 22.2352L7.96085 22.2025L10.1261 15.4847L10.1404 15.4455L10.1558 15.3801C10.1583 15.3582 10.1586 15.3356 10.1558 15.3136C10.1501 15.269 10.1334 15.2252 10.1074 15.1883C10.0814 15.1515 10.0462 15.1218 10.0061 15.1011C9.96567 15.0803 9.92051 15.0694 9.87499 15.0695H1.97722C1.60493 15.0701 1.23969 14.9656 0.924334 14.7698C0.608254 14.5733 0.355265 14.2921 0.19414 13.9589C0.0330331 13.6256 -0.0302952 13.2534 0.0135189 12.8865C0.057455 12.52 0.205913 12.1727 0.440842 11.886L0.491504 11.8304L11.6559 0.446973C11.8619 0.226935 12.1345 0.0777251 12.4334 0.0230215L12.5513 0.00667372ZM1.74594 12.953C1.71794 12.9913 1.69989 13.0367 1.69418 13.0838C1.68802 13.1359 1.69671 13.189 1.71951 13.2364C1.7425 13.2839 1.77905 13.3238 1.82414 13.3519C1.86932 13.3799 1.92167 13.3956 1.97502 13.3955H9.87169C10.1901 13.3948 10.5044 13.4702 10.7869 13.6156C11.0699 13.7614 11.3127 13.9734 11.4951 14.2325C11.6774 14.4916 11.7943 14.7911 11.8343 15.1044C11.8723 15.4037 11.8367 15.707 11.7363 15.9915L11.7385 15.9926L9.94438 21.5563L20.253 11.0458C20.2807 11.0076 20.3002 10.964 20.3059 10.9172C20.312 10.8649 20.3035 10.811 20.2805 10.7635C20.2575 10.716 20.221 10.676 20.1759 10.648C20.1308 10.62 20.0783 10.6053 20.025 10.6055H12.1272C11.8091 10.606 11.4954 10.5295 11.2131 10.3842C10.9303 10.2385 10.6873 10.0274 10.505 9.76845C10.3227 9.50933 10.2057 9.2098 10.1657 8.89657C10.1276 8.59675 10.1619 8.29212 10.2627 8.00726L12.0535 2.44358L1.74594 12.953Z"/>
</svg>
