<svg width="16" height="24" viewBox="0 0 16 24" fill="none" xmlns="http://www.w3.org/2000/svg">
<path d="M10.2222 22.3256C10.6825 22.3256 11.0556 22.7004 11.0556 23.1628C11.0556 23.6252 10.6825 24 10.2222 24H5.77778C5.31754 24 4.94444 23.6252 4.94444 23.1628C4.94444 22.7004 5.31754 22.3256 5.77778 22.3256H10.2222Z"/>
<path d="M11.3333 17.8605C11.7936 17.8605 12.1667 18.2353 12.1667 18.6977C12.1667 19.1601 11.7936 19.5349 11.3333 19.5349H4.66667C4.20643 19.5349 3.83333 19.1601 3.83333 18.6977C3.83333 18.2353 4.20643 17.8605 4.66667 17.8605H11.3333Z"/>
<path d="M8 0C9.98912 0 11.8973 0.793331 13.3038 2.2064C14.7103 3.61946 15.5 5.53651 15.5 7.53488C15.5 9.17924 14.8752 10.8527 13.5892 12.0338L13.2951 12.339C12.652 13.0348 12.3047 13.6219 12.1504 14.3972C12.0599 14.8503 11.6206 15.1441 11.1695 15.0534C10.7184 14.9625 10.426 14.5212 10.5163 14.068C10.7844 12.7215 11.4669 11.7982 12.4108 10.8499L12.4423 10.8194L12.6083 10.6602C13.4142 9.84118 13.8333 8.70147 13.8333 7.53488C13.8333 5.98059 13.2183 4.4904 12.1243 3.39135C11.0304 2.2923 9.5471 1.67442 8 1.67442C6.4529 1.67442 4.96961 2.2923 3.87565 3.39135C2.78169 4.4904 2.16667 5.98059 2.16667 7.53488L2.17643 7.89898C2.22626 8.76581 2.49404 9.74968 3.58919 10.8499C4.36231 11.6266 5.1143 12.586 5.4273 13.8183L5.48372 14.068L5.49675 14.153C5.53737 14.5753 5.25342 14.9682 4.83051 15.0534C4.40745 15.1384 3.99452 14.8855 3.87023 14.48L3.84961 14.3972L3.81272 14.2336C3.63479 13.5324 3.22704 12.9118 2.67556 12.3107L2.41081 12.0338C0.978277 10.5946 0.589969 9.20994 0.515191 8.02871L0.5 7.53488C0.5 5.53651 1.28966 3.61946 2.69618 2.2064C4.1027 0.793331 6.01088 0 8 0Z"/>
</svg>
