<svg width="16" height="9" viewBox="0 0 16 9" fill="none" xmlns="http://www.w3.org/2000/svg">
<path d="M10.9766 0.0691888C11.1133 -0.0735471 15.3743 0.0429676 15.5509 0.0794271L15.5541 0.0805647C15.5868 0.0875206 15.6187 0.0975051 15.649 0.110142C15.6538 0.112149 15.6584 0.114815 15.6631 0.116968C15.6915 0.129791 15.7192 0.143963 15.7449 0.161334C15.7499 0.164694 15.7542 0.169167 15.7591 0.17271C15.783 0.189987 15.8046 0.209866 15.8256 0.230727C15.8289 0.234003 15.8332 0.236451 15.8365 0.239828C15.8405 0.244027 15.8435 0.249185 15.8474 0.253479C15.8639 0.271801 15.879 0.291065 15.8932 0.311496C15.9005 0.322144 15.9084 0.332318 15.915 0.343348C15.9265 0.362628 15.9361 0.38294 15.9455 0.403641C15.9515 0.416911 15.958 0.429844 15.9629 0.443457C15.9693 0.460791 15.9734 0.478841 15.9782 0.496923C15.9825 0.513223 15.9873 0.529278 15.9902 0.54584C15.9962 0.580099 16 0.615575 16 0.651636V5.31121C15.9998 5.63271 15.75 5.89366 15.4418 5.89366C15.1339 5.89343 14.8839 5.63257 14.8837 5.31121V2.0577L9.51138 7.66489C9.29357 7.89195 8.94006 7.89174 8.72211 7.66489L5.39495 4.19296L0.952561 8.82978C0.734668 9.05672 0.381161 9.05676 0.163288 8.82978C-0.0545583 8.60246 -0.0543 8.23366 0.163288 8.00617L5.00032 2.95753L5.08862 2.88359C5.30512 2.73452 5.59889 2.7589 5.78959 2.95753L9.11566 6.42833L14.0944 1.23408H10.9766C10.6686 1.23385 10.4186 0.972995 10.4184 0.651636C10.4184 0.330103 10.6685 0.0694215 10.9766 0.0691888Z"/>
</svg>
