<svg width="24" height="24" viewBox="0 0 24 24" fill="none" xmlns="http://www.w3.org/2000/svg">
<path fill-rule="evenodd" clip-rule="evenodd" d="M12 8.93023C13.6954 8.93023 15.0698 10.3046 15.0698 12C15.0698 13.6954 13.6954 15.0698 12 15.0698C10.3046 15.0698 8.93023 13.6954 8.93023 12C8.93023 10.3046 10.3046 8.93023 12 8.93023ZM12 10.6047C11.2294 10.6047 10.6047 11.2294 10.6047 12C10.6047 12.7706 11.2294 13.3953 12 13.3953C12.7706 13.3953 13.3953 12.7706 13.3953 12C13.3953 11.2294 12.7706 10.6047 12 10.6047Z"/>
<path fill-rule="evenodd" clip-rule="evenodd" d="M12 4.46512C16.1614 4.46512 19.5349 7.8386 19.5349 12C19.5349 16.1614 16.1614 19.5349 12 19.5349C7.8386 19.5349 4.46512 16.1614 4.46512 12C4.46512 7.8386 7.8386 4.46512 12 4.46512ZM12 6.13953C8.76336 6.13953 6.13953 8.76336 6.13953 12C6.13953 15.2366 8.76336 17.8605 12 17.8605C15.2366 17.8605 17.8605 15.2366 17.8605 12C17.8605 8.76336 15.2366 6.13953 12 6.13953Z"/>
<path fill-rule="evenodd" clip-rule="evenodd" d="M12 0C18.6274 0 24 5.37258 24 12C24 18.6274 18.6274 24 12 24C5.37258 24 0 18.6274 0 12C0 5.37258 5.37258 0 12 0ZM12 1.67442C6.29734 1.67442 1.67442 6.29734 1.67442 12C1.67442 17.7027 6.29734 22.3256 12 22.3256C17.7027 22.3256 22.3256 17.7027 22.3256 12C22.3256 6.29734 17.7027 1.67442 12 1.67442Z"/>
</svg>
