<svg width="24" height="22" viewBox="0 0 24 22" fill="none" xmlns="http://www.w3.org/2000/svg">
<path d="M12.2627 13.4294C13.5733 13.4921 14.8166 14.0223 15.7489 14.9217C16.7433 15.881 17.3023 17.1818 17.3023 18.5385V20.6923C17.3023 21.1384 16.9275 21.5 16.4651 21.5C16.0027 21.5 15.6279 21.1384 15.6279 20.6923V18.5385C15.6279 17.6102 15.2454 16.7202 14.565 16.0639C13.9272 15.4485 13.0766 15.0856 12.1799 15.0427L12 15.0385H5.30233C4.34015 15.0385 3.41765 15.4075 2.73728 16.0639C2.05692 16.7202 1.67442 17.6102 1.67442 18.5385V20.6923C1.67442 21.1384 1.29959 21.5 0.837209 21.5C0.374831 21.5 0 21.1384 0 20.6923V18.5385C0 17.1818 0.559037 15.881 1.55342 14.9217C2.54779 13.9624 3.89606 13.4231 5.30233 13.4231H12L12.2627 13.4294Z"/>
<path d="M19.9393 13.5724L20.0233 13.5882L20.2347 13.646C21.2854 13.953 22.2133 14.5678 22.8881 15.4076C23.6078 16.3033 23.999 17.4042 24 18.5374V20.6923C23.9999 21.1383 23.6251 21.5 23.1628 21.5C22.7005 21.5 22.3257 21.1383 22.3256 20.6923V18.5385C22.3248 17.7632 22.057 17.01 21.5647 16.3972C21.1338 15.8611 20.5524 15.4582 19.8924 15.2362L19.6047 15.1531L19.5229 15.1279C19.1249 14.986 18.8946 14.5736 19.0029 14.1687C19.1113 13.7639 19.5199 13.5106 19.9393 13.5724Z"/>
<path fill-rule="evenodd" clip-rule="evenodd" d="M8.65116 0.5C11.5796 0.5 13.9535 2.79024 13.9535 5.61539C13.9535 8.44053 11.5796 10.7308 8.65116 10.7308C5.72277 10.7308 3.34884 8.44053 3.34884 5.61539C3.34884 2.79024 5.72277 0.5 8.65116 0.5ZM8.65116 2.11538C6.64753 2.11538 5.02326 3.68239 5.02326 5.61539C5.02326 7.54838 6.64753 9.11539 8.65116 9.11539C10.6548 9.11539 12.2791 7.54838 12.2791 5.61539C12.2791 3.68239 10.6548 2.11538 8.65116 2.11538Z"/>
<path d="M16.5883 0.648287L16.6722 0.665114L16.8848 0.721905C17.9384 1.0276 18.8689 1.64331 19.5458 2.48453C20.2676 3.38172 20.6599 4.48491 20.6599 5.62064L20.6555 5.83308C20.6099 6.89346 20.2225 7.9156 19.5458 8.75676C18.8689 9.598 17.9384 10.2137 16.8848 10.5194L16.6722 10.5762C16.2245 10.6865 15.7687 10.4255 15.6541 9.99354C15.5398 9.5616 15.8103 9.12186 16.258 9.01127L16.5458 8.92713C17.2075 8.70581 17.7913 8.30412 18.2235 7.76713C18.6556 7.22999 18.9154 6.58439 18.9735 5.91091L18.9855 5.62064C18.9854 4.84354 18.7174 4.08803 18.2235 3.47416C17.7913 2.9372 17.2075 2.53546 16.5458 2.31415L16.1751 2.20583C15.7772 2.06468 15.5469 1.6526 15.6541 1.24775C15.7616 0.842864 16.1689 0.587641 16.5883 0.648287Z"/>
</svg>
